<mxfile host="65bd71144e">
    <diagram id="sDRhL0U5E7Hy6duVgeHK" name="Page-1">
        <mxGraphModel dx="1588" dy="400" grid="1" gridSize="10" guides="1" tooltips="1" connect="1" arrows="1" fold="1" page="0" pageScale="1" pageWidth="827" pageHeight="1169" background="none" math="0" shadow="0">
            <root>
                <mxCell id="0"/>
                <mxCell id="1" parent="0"/>
                <mxCell id="93" value="" style="endArrow=none;html=1;strokeWidth=1;" parent="1" edge="1">
                    <mxGeometry width="50" height="50" relative="1" as="geometry">
                        <mxPoint x="39.17" y="920.5699999999999" as="sourcePoint"/>
                        <mxPoint x="39.17" y="640" as="targetPoint"/>
                    </mxGeometry>
                </mxCell>
                <mxCell id="94" value="" style="endArrow=none;html=1;strokeWidth=1;" parent="1" edge="1">
                    <mxGeometry width="50" height="50" relative="1" as="geometry">
                        <mxPoint x="39.17" y="920.5699999999999" as="sourcePoint"/>
                        <mxPoint x="199.17" y="920.5699999999999" as="targetPoint"/>
                    </mxGeometry>
                </mxCell>
                <mxCell id="95" value="" style="endArrow=none;html=1;strokeWidth=1;" parent="1" edge="1">
                    <mxGeometry width="50" height="50" relative="1" as="geometry">
                        <mxPoint x="199.17" y="920.5699999999999" as="sourcePoint"/>
                        <mxPoint x="199.17" y="640" as="targetPoint"/>
                    </mxGeometry>
                </mxCell>
                <mxCell id="96" value="4" style="rounded=0;whiteSpace=wrap;html=1;fillColor=#f5f5f5;strokeColor=#666666;fontColor=#333333;" parent="1" vertex="1">
                    <mxGeometry x="238.99999999999997" y="760" width="80" height="60" as="geometry"/>
                </mxCell>
                <mxCell id="97" value="2" style="rounded=0;whiteSpace=wrap;html=1;fillColor=#f5f5f5;strokeColor=#666666;fontColor=#333333;" parent="1" vertex="1">
                    <mxGeometry x="79" y="820" width="80" height="60" as="geometry"/>
                </mxCell>
                <mxCell id="98" value="" style="endArrow=none;html=1;strokeWidth=1;" parent="1" edge="1">
                    <mxGeometry width="50" height="50" relative="1" as="geometry">
                        <mxPoint x="239.17" y="920" as="sourcePoint"/>
                        <mxPoint x="239.17" y="640" as="targetPoint"/>
                    </mxGeometry>
                </mxCell>
                <mxCell id="99" value="" style="endArrow=none;html=1;strokeWidth=1;" parent="1" edge="1">
                    <mxGeometry width="50" height="50" relative="1" as="geometry">
                        <mxPoint x="239.17" y="920" as="sourcePoint"/>
                        <mxPoint x="399.17" y="920" as="targetPoint"/>
                    </mxGeometry>
                </mxCell>
                <mxCell id="100" value="" style="endArrow=none;html=1;strokeWidth=1;" parent="1" edge="1">
                    <mxGeometry width="50" height="50" relative="1" as="geometry">
                        <mxPoint x="399.17" y="920" as="sourcePoint"/>
                        <mxPoint x="399.17" y="640" as="targetPoint"/>
                    </mxGeometry>
                </mxCell>
                <mxCell id="101" value="2" style="rounded=0;whiteSpace=wrap;html=1;fillColor=#f5f5f5;strokeColor=#666666;fontColor=#333333;" parent="1" vertex="1">
                    <mxGeometry x="239.16999999999996" y="880" width="40" height="40" as="geometry"/>
                </mxCell>
                <mxCell id="102" value="1" style="rounded=0;whiteSpace=wrap;html=1;fillColor=#f5f5f5;strokeColor=#666666;fontColor=#333333;" parent="1" vertex="1">
                    <mxGeometry x="39" y="880" width="40" height="40" as="geometry"/>
                </mxCell>
                <mxCell id="103" value="5" style="rounded=0;whiteSpace=wrap;html=1;fillColor=#f5f5f5;strokeColor=#666666;fontColor=#333333;" parent="1" vertex="1">
                    <mxGeometry x="118.99999999999997" y="880" width="40" height="40" as="geometry"/>
                </mxCell>
                <mxCell id="104" value="3" style="rounded=0;whiteSpace=wrap;html=1;fillColor=#f5f5f5;strokeColor=#666666;fontColor=#333333;" parent="1" vertex="1">
                    <mxGeometry x="39" y="760" width="80" height="60" as="geometry"/>
                </mxCell>
                <mxCell id="105" value="3" style="rounded=0;whiteSpace=wrap;html=1;fillColor=#f5f5f5;strokeColor=#666666;fontColor=#333333;" parent="1" vertex="1">
                    <mxGeometry x="279.16999999999996" y="880" width="40" height="40" as="geometry"/>
                </mxCell>
                <mxCell id="106" value="4" style="rounded=0;whiteSpace=wrap;html=1;fillColor=#f5f5f5;strokeColor=#666666;fontColor=#333333;" parent="1" vertex="1">
                    <mxGeometry x="79" y="880" width="40" height="40" as="geometry"/>
                </mxCell>
                <mxCell id="107" value="1" style="rounded=0;whiteSpace=wrap;html=1;fillColor=#f5f5f5;strokeColor=#666666;fontColor=#333333;" parent="1" vertex="1">
                    <mxGeometry x="279.17" y="820" width="80" height="60" as="geometry"/>
                </mxCell>
                <mxCell id="108" value="6" style="rounded=0;whiteSpace=wrap;html=1;fillColor=#f5f5f5;strokeColor=#666666;fontColor=#333333;" parent="1" vertex="1">
                    <mxGeometry x="119" y="760" width="80" height="60" as="geometry"/>
                </mxCell>
                <mxCell id="109" value="u: 5 + 5 * 2 = 15&lt;br&gt;h: 5.5" style="text;html=1;align=left;verticalAlign=middle;resizable=0;points=[];autosize=1;strokeColor=none;fillColor=none;" parent="1" vertex="1">
                    <mxGeometry x="70" y="930" width="100" height="30" as="geometry"/>
                </mxCell>
                <mxCell id="110" value="u: 5 + 5 * 2 = 15&lt;br&gt;h: 5.5" style="text;html=1;align=left;verticalAlign=middle;resizable=0;points=[];autosize=1;strokeColor=none;fillColor=none;" parent="1" vertex="1">
                    <mxGeometry x="279.17" y="930" width="100" height="30" as="geometry"/>
                </mxCell>
                <mxCell id="111" value="10" style="rounded=0;whiteSpace=wrap;html=1;fillColor=#f5f5f5;strokeColor=#666666;fontColor=#333333;" parent="1" vertex="1">
                    <mxGeometry x="119" y="700" width="80" height="60" as="geometry"/>
                </mxCell>
                <mxCell id="112" value="5" style="rounded=0;whiteSpace=wrap;html=1;fillColor=#f5f5f5;strokeColor=#666666;fontColor=#333333;" parent="1" vertex="1">
                    <mxGeometry x="319.17" y="760" width="80" height="60" as="geometry"/>
                </mxCell>
                <mxCell id="113" value="8" style="rounded=0;whiteSpace=wrap;html=1;fillColor=#f5f5f5;strokeColor=#666666;fontColor=#333333;" parent="1" vertex="1">
                    <mxGeometry x="238.99999999999997" y="700" width="80" height="60" as="geometry"/>
                </mxCell>
                <mxCell id="114" value="7" style="rounded=0;whiteSpace=wrap;html=1;fillColor=#f5f5f5;strokeColor=#666666;fontColor=#333333;" parent="1" vertex="1">
                    <mxGeometry x="39" y="700" width="80" height="60" as="geometry"/>
                </mxCell>
                <mxCell id="115" value="9" style="rounded=0;whiteSpace=wrap;html=1;fillColor=#f5f5f5;strokeColor=#666666;fontColor=#333333;" parent="1" vertex="1">
                    <mxGeometry x="319" y="700" width="80" height="60" as="geometry"/>
                </mxCell>
                <mxCell id="116" value="6" style="rounded=0;whiteSpace=wrap;html=1;fillColor=#f5f5f5;strokeColor=#666666;fontColor=#333333;" parent="1" vertex="1">
                    <mxGeometry x="319" y="880" width="40" height="40" as="geometry"/>
                </mxCell>
                <mxCell id="117" value="8" style="rounded=0;whiteSpace=wrap;html=1;fillColor=#f5f5f5;strokeColor=#666666;fontColor=#333333;" parent="1" vertex="1">
                    <mxGeometry x="159" y="880" width="40" height="40" as="geometry"/>
                </mxCell>
                <mxCell id="118" value="7" style="rounded=0;whiteSpace=wrap;html=1;fillColor=#f5f5f5;strokeColor=#666666;fontColor=#333333;" parent="1" vertex="1">
                    <mxGeometry x="359" y="880" width="40" height="40" as="geometry"/>
                </mxCell>
                <mxCell id="119" value="9" style="rounded=0;whiteSpace=wrap;html=1;fillColor=#f5f5f5;strokeColor=#666666;fontColor=#333333;" parent="1" vertex="1">
                    <mxGeometry x="39" y="840" width="40" height="40" as="geometry"/>
                </mxCell>
                <mxCell id="120" value="10" style="rounded=0;whiteSpace=wrap;html=1;fillColor=#f5f5f5;strokeColor=#666666;fontColor=#333333;" parent="1" vertex="1">
                    <mxGeometry x="239.17" y="840" width="40" height="40" as="geometry"/>
                </mxCell>
                <mxCell id="150" value="先分配所有 type-1，再分配所有 type-2" style="text;html=1;align=center;verticalAlign=middle;resizable=0;points=[];autosize=1;strokeColor=none;fillColor=none;" parent="1" vertex="1">
                    <mxGeometry x="99.17" y="980" width="220" height="20" as="geometry"/>
                </mxCell>
                <mxCell id="183" value="" style="endArrow=none;html=1;strokeWidth=1;" parent="1" edge="1">
                    <mxGeometry width="50" height="50" relative="1" as="geometry">
                        <mxPoint x="480.00000000000006" y="920.5699999999999" as="sourcePoint"/>
                        <mxPoint x="480.00000000000006" y="640" as="targetPoint"/>
                    </mxGeometry>
                </mxCell>
                <mxCell id="184" value="" style="endArrow=none;html=1;strokeWidth=1;" parent="1" edge="1">
                    <mxGeometry width="50" height="50" relative="1" as="geometry">
                        <mxPoint x="480.00000000000006" y="920.5699999999999" as="sourcePoint"/>
                        <mxPoint x="640" y="920.5699999999999" as="targetPoint"/>
                    </mxGeometry>
                </mxCell>
                <mxCell id="185" value="" style="endArrow=none;html=1;strokeWidth=1;" parent="1" edge="1">
                    <mxGeometry width="50" height="50" relative="1" as="geometry">
                        <mxPoint x="640" y="920.5699999999999" as="sourcePoint"/>
                        <mxPoint x="640" y="640" as="targetPoint"/>
                    </mxGeometry>
                </mxCell>
                <mxCell id="186" value="3" style="rounded=0;whiteSpace=wrap;html=1;fillColor=#f5f5f5;strokeColor=#666666;fontColor=#333333;" parent="1" vertex="1">
                    <mxGeometry x="760" y="860" width="80" height="60" as="geometry"/>
                </mxCell>
                <mxCell id="187" value="1" style="rounded=0;whiteSpace=wrap;html=1;fillColor=#f5f5f5;strokeColor=#666666;fontColor=#333333;" parent="1" vertex="1">
                    <mxGeometry x="480" y="860" width="80" height="60" as="geometry"/>
                </mxCell>
                <mxCell id="188" value="" style="endArrow=none;html=1;strokeWidth=1;" parent="1" edge="1">
                    <mxGeometry width="50" height="50" relative="1" as="geometry">
                        <mxPoint x="680" y="920" as="sourcePoint"/>
                        <mxPoint x="680" y="640" as="targetPoint"/>
                    </mxGeometry>
                </mxCell>
                <mxCell id="189" value="" style="endArrow=none;html=1;strokeWidth=1;" parent="1" edge="1">
                    <mxGeometry width="50" height="50" relative="1" as="geometry">
                        <mxPoint x="680" y="920" as="sourcePoint"/>
                        <mxPoint x="840" y="920" as="targetPoint"/>
                    </mxGeometry>
                </mxCell>
                <mxCell id="190" value="" style="endArrow=none;html=1;strokeWidth=1;" parent="1" edge="1">
                    <mxGeometry width="50" height="50" relative="1" as="geometry">
                        <mxPoint x="840" y="920" as="sourcePoint"/>
                        <mxPoint x="840" y="640" as="targetPoint"/>
                    </mxGeometry>
                </mxCell>
                <mxCell id="191" value="1" style="rounded=0;whiteSpace=wrap;html=1;fillColor=#f5f5f5;strokeColor=#666666;fontColor=#333333;" parent="1" vertex="1">
                    <mxGeometry x="760" y="760" width="40" height="40" as="geometry"/>
                </mxCell>
                <mxCell id="192" value="2" style="rounded=0;whiteSpace=wrap;html=1;fillColor=#f5f5f5;strokeColor=#666666;fontColor=#333333;" parent="1" vertex="1">
                    <mxGeometry x="560" y="760" width="40" height="40" as="geometry"/>
                </mxCell>
                <mxCell id="193" value="6" style="rounded=0;whiteSpace=wrap;html=1;fillColor=#f5f5f5;strokeColor=#666666;fontColor=#333333;" parent="1" vertex="1">
                    <mxGeometry x="560" y="720" width="40" height="40" as="geometry"/>
                </mxCell>
                <mxCell id="194" value="4" style="rounded=0;whiteSpace=wrap;html=1;fillColor=#f5f5f5;strokeColor=#666666;fontColor=#333333;" parent="1" vertex="1">
                    <mxGeometry x="560" y="860" width="80" height="60" as="geometry"/>
                </mxCell>
                <mxCell id="195" value="4" style="rounded=0;whiteSpace=wrap;html=1;fillColor=#f5f5f5;strokeColor=#666666;fontColor=#333333;" parent="1" vertex="1">
                    <mxGeometry x="800" y="760" width="40" height="40" as="geometry"/>
                </mxCell>
                <mxCell id="196" value="3" style="rounded=0;whiteSpace=wrap;html=1;fillColor=#f5f5f5;strokeColor=#666666;fontColor=#333333;" parent="1" vertex="1">
                    <mxGeometry x="600" y="760" width="40" height="40" as="geometry"/>
                </mxCell>
                <mxCell id="197" value="2" style="rounded=0;whiteSpace=wrap;html=1;fillColor=#f5f5f5;strokeColor=#666666;fontColor=#333333;" parent="1" vertex="1">
                    <mxGeometry x="680" y="860" width="80" height="60" as="geometry"/>
                </mxCell>
                <mxCell id="198" value="5" style="rounded=0;whiteSpace=wrap;html=1;fillColor=#f5f5f5;strokeColor=#666666;fontColor=#333333;" parent="1" vertex="1">
                    <mxGeometry x="480" y="800" width="80" height="60" as="geometry"/>
                </mxCell>
                <mxCell id="199" value="u: 5 + 5 * 2 = 15&lt;br&gt;t: 5.5" style="text;html=1;align=left;verticalAlign=middle;resizable=0;points=[];autosize=1;strokeColor=none;fillColor=none;" parent="1" vertex="1">
                    <mxGeometry x="510.83" y="930" width="100" height="30" as="geometry"/>
                </mxCell>
                <mxCell id="200" value="u: 5 + 5 * 2 = 15&lt;br&gt;t: 5.5" style="text;html=1;align=left;verticalAlign=middle;resizable=0;points=[];autosize=1;strokeColor=none;fillColor=none;" parent="1" vertex="1">
                    <mxGeometry x="720" y="930" width="100" height="30" as="geometry"/>
                </mxCell>
                <mxCell id="201" value="9" style="rounded=0;whiteSpace=wrap;html=1;fillColor=#f5f5f5;strokeColor=#666666;fontColor=#333333;" parent="1" vertex="1">
                    <mxGeometry x="480" y="740" width="80" height="60" as="geometry"/>
                </mxCell>
                <mxCell id="202" value="6" style="rounded=0;whiteSpace=wrap;html=1;fillColor=#f5f5f5;strokeColor=#666666;fontColor=#333333;" parent="1" vertex="1">
                    <mxGeometry x="680" y="800" width="80" height="60" as="geometry"/>
                </mxCell>
                <mxCell id="203" value="7" style="rounded=0;whiteSpace=wrap;html=1;fillColor=#f5f5f5;strokeColor=#666666;fontColor=#333333;" parent="1" vertex="1">
                    <mxGeometry x="760" y="800" width="80" height="60" as="geometry"/>
                </mxCell>
                <mxCell id="204" value="8" style="rounded=0;whiteSpace=wrap;html=1;fillColor=#f5f5f5;strokeColor=#666666;fontColor=#333333;" parent="1" vertex="1">
                    <mxGeometry x="560" y="800" width="80" height="60" as="geometry"/>
                </mxCell>
                <mxCell id="205" value="10" style="rounded=0;whiteSpace=wrap;html=1;fillColor=#f5f5f5;strokeColor=#666666;fontColor=#333333;" parent="1" vertex="1">
                    <mxGeometry x="680" y="740" width="80" height="60" as="geometry"/>
                </mxCell>
                <mxCell id="206" value="5" style="rounded=0;whiteSpace=wrap;html=1;fillColor=#f5f5f5;strokeColor=#666666;fontColor=#333333;" parent="1" vertex="1">
                    <mxGeometry x="760" y="720" width="40" height="40" as="geometry"/>
                </mxCell>
                <mxCell id="207" value="7" style="rounded=0;whiteSpace=wrap;html=1;fillColor=#f5f5f5;strokeColor=#666666;fontColor=#333333;" parent="1" vertex="1">
                    <mxGeometry x="600" y="720" width="40" height="40" as="geometry"/>
                </mxCell>
                <mxCell id="208" value="8" style="rounded=0;whiteSpace=wrap;html=1;fillColor=#f5f5f5;strokeColor=#666666;fontColor=#333333;" parent="1" vertex="1">
                    <mxGeometry x="800" y="720" width="40" height="40" as="geometry"/>
                </mxCell>
                <mxCell id="209" value="10" style="rounded=0;whiteSpace=wrap;html=1;fillColor=#f5f5f5;strokeColor=#666666;fontColor=#333333;" parent="1" vertex="1">
                    <mxGeometry x="480" y="700" width="40" height="40" as="geometry"/>
                </mxCell>
                <mxCell id="210" value="9" style="rounded=0;whiteSpace=wrap;html=1;fillColor=#f5f5f5;strokeColor=#666666;fontColor=#333333;" parent="1" vertex="1">
                    <mxGeometry x="680" y="700" width="40" height="40" as="geometry"/>
                </mxCell>
                <mxCell id="211" value="先分配所有 type-2，再分配所有 type-1" style="text;html=1;align=center;verticalAlign=middle;resizable=0;points=[];autosize=1;strokeColor=none;fillColor=none;" parent="1" vertex="1">
                    <mxGeometry x="540" y="980" width="220" height="20" as="geometry"/>
                </mxCell>
                <mxCell id="213" value="" style="endArrow=none;html=1;strokeWidth=1;" parent="1" edge="1">
                    <mxGeometry width="50" height="50" relative="1" as="geometry">
                        <mxPoint x="920.1700000000001" y="920.5699999999999" as="sourcePoint"/>
                        <mxPoint x="920.1700000000001" y="640" as="targetPoint"/>
                    </mxGeometry>
                </mxCell>
                <mxCell id="214" value="" style="endArrow=none;html=1;strokeWidth=1;" parent="1" edge="1">
                    <mxGeometry width="50" height="50" relative="1" as="geometry">
                        <mxPoint x="920.1700000000001" y="920.5699999999999" as="sourcePoint"/>
                        <mxPoint x="1080.17" y="920.5699999999999" as="targetPoint"/>
                    </mxGeometry>
                </mxCell>
                <mxCell id="215" value="" style="endArrow=none;html=1;strokeWidth=1;" parent="1" edge="1">
                    <mxGeometry width="50" height="50" relative="1" as="geometry">
                        <mxPoint x="1080.17" y="920.5699999999999" as="sourcePoint"/>
                        <mxPoint x="1080.17" y="640" as="targetPoint"/>
                    </mxGeometry>
                </mxCell>
                <mxCell id="216" value="2" style="rounded=0;whiteSpace=wrap;html=1;fillColor=#f5f5f5;strokeColor=#666666;fontColor=#333333;" parent="1" vertex="1">
                    <mxGeometry x="1120.17" y="820" width="80" height="60" as="geometry"/>
                </mxCell>
                <mxCell id="217" value="7" style="rounded=0;whiteSpace=wrap;html=1;fillColor=#f5f5f5;strokeColor=#666666;fontColor=#333333;" parent="1" vertex="1">
                    <mxGeometry x="1200" y="740" width="80" height="60" as="geometry"/>
                </mxCell>
                <mxCell id="218" value="" style="endArrow=none;html=1;strokeWidth=1;" parent="1" edge="1">
                    <mxGeometry width="50" height="50" relative="1" as="geometry">
                        <mxPoint x="1120.17" y="920" as="sourcePoint"/>
                        <mxPoint x="1120.17" y="640" as="targetPoint"/>
                    </mxGeometry>
                </mxCell>
                <mxCell id="219" value="" style="endArrow=none;html=1;strokeWidth=1;" parent="1" edge="1">
                    <mxGeometry width="50" height="50" relative="1" as="geometry">
                        <mxPoint x="1120.17" y="920" as="sourcePoint"/>
                        <mxPoint x="1280.17" y="920" as="targetPoint"/>
                    </mxGeometry>
                </mxCell>
                <mxCell id="220" value="" style="endArrow=none;html=1;strokeWidth=1;" parent="1" edge="1">
                    <mxGeometry width="50" height="50" relative="1" as="geometry">
                        <mxPoint x="1280.17" y="920" as="sourcePoint"/>
                        <mxPoint x="1280.17" y="640" as="targetPoint"/>
                    </mxGeometry>
                </mxCell>
                <mxCell id="221" value="7" style="rounded=0;whiteSpace=wrap;html=1;fillColor=#f5f5f5;strokeColor=#666666;fontColor=#333333;" parent="1" vertex="1">
                    <mxGeometry x="1000.0000000000001" y="840" width="40" height="40" as="geometry"/>
                </mxCell>
                <mxCell id="222" value="1" style="rounded=0;whiteSpace=wrap;html=1;fillColor=#f5f5f5;strokeColor=#666666;fontColor=#333333;" parent="1" vertex="1">
                    <mxGeometry x="920" y="880" width="40" height="40" as="geometry"/>
                </mxCell>
                <mxCell id="223" value="3" style="rounded=0;whiteSpace=wrap;html=1;fillColor=#f5f5f5;strokeColor=#666666;fontColor=#333333;" parent="1" vertex="1">
                    <mxGeometry x="1000" y="880" width="40" height="40" as="geometry"/>
                </mxCell>
                <mxCell id="224" value="5" style="rounded=0;whiteSpace=wrap;html=1;fillColor=#f5f5f5;strokeColor=#666666;fontColor=#333333;" parent="1" vertex="1">
                    <mxGeometry x="920" y="780" width="80" height="60" as="geometry"/>
                </mxCell>
                <mxCell id="225" value="8" style="rounded=0;whiteSpace=wrap;html=1;fillColor=#f5f5f5;strokeColor=#666666;fontColor=#333333;" parent="1" vertex="1">
                    <mxGeometry x="1040" y="840" width="40" height="40" as="geometry"/>
                </mxCell>
                <mxCell id="226" value="2" style="rounded=0;whiteSpace=wrap;html=1;fillColor=#f5f5f5;strokeColor=#666666;fontColor=#333333;" parent="1" vertex="1">
                    <mxGeometry x="960" y="880" width="40" height="40" as="geometry"/>
                </mxCell>
                <mxCell id="227" value="1" style="rounded=0;whiteSpace=wrap;html=1;fillColor=#f5f5f5;strokeColor=#666666;fontColor=#333333;" parent="1" vertex="1">
                    <mxGeometry x="1200" y="860" width="80" height="60" as="geometry"/>
                </mxCell>
                <mxCell id="228" value="6" style="rounded=0;whiteSpace=wrap;html=1;fillColor=#f5f5f5;strokeColor=#666666;fontColor=#333333;" parent="1" vertex="1">
                    <mxGeometry x="1000" y="780" width="80" height="60" as="geometry"/>
                </mxCell>
                <mxCell id="229" value="u: 8 + 4 * 2 = 16&amp;nbsp;&lt;br&gt;t: 5" style="text;html=1;align=left;verticalAlign=middle;resizable=0;points=[];autosize=1;strokeColor=none;fillColor=none;" parent="1" vertex="1">
                    <mxGeometry x="951" y="930" width="100" height="30" as="geometry"/>
                </mxCell>
                <mxCell id="230" value="u: 2 + 6 * 2 = 14&amp;nbsp;&lt;br&gt;t: 5.5" style="text;html=1;align=left;verticalAlign=middle;resizable=0;points=[];autosize=1;strokeColor=none;fillColor=none;" parent="1" vertex="1">
                    <mxGeometry x="1160.17" y="930" width="100" height="30" as="geometry"/>
                </mxCell>
                <mxCell id="231" value="10" style="rounded=0;whiteSpace=wrap;html=1;fillColor=#f5f5f5;strokeColor=#666666;fontColor=#333333;" parent="1" vertex="1">
                    <mxGeometry x="1000" y="720" width="80" height="60" as="geometry"/>
                </mxCell>
                <mxCell id="232" value="3" style="rounded=0;whiteSpace=wrap;html=1;fillColor=#f5f5f5;strokeColor=#666666;fontColor=#333333;" parent="1" vertex="1">
                    <mxGeometry x="1200" y="800" width="80" height="60" as="geometry"/>
                </mxCell>
                <mxCell id="233" value="4" style="rounded=0;whiteSpace=wrap;html=1;fillColor=#f5f5f5;strokeColor=#666666;fontColor=#333333;" parent="1" vertex="1">
                    <mxGeometry x="1120.17" y="760" width="80" height="60" as="geometry"/>
                </mxCell>
                <mxCell id="234" value="9" style="rounded=0;whiteSpace=wrap;html=1;fillColor=#f5f5f5;strokeColor=#666666;fontColor=#333333;" parent="1" vertex="1">
                    <mxGeometry x="920" y="720" width="80" height="60" as="geometry"/>
                </mxCell>
                <mxCell id="235" value="8" style="rounded=0;whiteSpace=wrap;html=1;fillColor=#f5f5f5;strokeColor=#666666;fontColor=#333333;" parent="1" vertex="1">
                    <mxGeometry x="1120" y="700" width="80" height="60" as="geometry"/>
                </mxCell>
                <mxCell id="236" value="9" style="rounded=0;whiteSpace=wrap;html=1;fillColor=#f5f5f5;strokeColor=#666666;fontColor=#333333;" parent="1" vertex="1">
                    <mxGeometry x="1120" y="880" width="40" height="40" as="geometry"/>
                </mxCell>
                <mxCell id="237" value="4" style="rounded=0;whiteSpace=wrap;html=1;fillColor=#f5f5f5;strokeColor=#666666;fontColor=#333333;" parent="1" vertex="1">
                    <mxGeometry x="1040" y="880" width="40" height="40" as="geometry"/>
                </mxCell>
                <mxCell id="238" value="10" style="rounded=0;whiteSpace=wrap;html=1;fillColor=#f5f5f5;strokeColor=#666666;fontColor=#333333;" parent="1" vertex="1">
                    <mxGeometry x="1160" y="880" width="40" height="40" as="geometry"/>
                </mxCell>
                <mxCell id="239" value="5" style="rounded=0;whiteSpace=wrap;html=1;fillColor=#f5f5f5;strokeColor=#666666;fontColor=#333333;" parent="1" vertex="1">
                    <mxGeometry x="920" y="840" width="40" height="40" as="geometry"/>
                </mxCell>
                <mxCell id="240" value="6" style="rounded=0;whiteSpace=wrap;html=1;fillColor=#f5f5f5;strokeColor=#666666;fontColor=#333333;" parent="1" vertex="1">
                    <mxGeometry x="960.0000000000001" y="840" width="40" height="40" as="geometry"/>
                </mxCell>
                <mxCell id="241" value="先分配所有 type-1，再分配所有 type-2&lt;br&gt;&amp;nbsp;最佳分配" style="text;html=1;align=center;verticalAlign=middle;resizable=0;points=[];autosize=1;strokeColor=none;fillColor=none;" parent="1" vertex="1">
                    <mxGeometry x="980.17" y="975" width="220" height="30" as="geometry"/>
                </mxCell>
                <mxCell id="242" value="" style="endArrow=none;html=1;strokeWidth=1;" parent="1" edge="1">
                    <mxGeometry width="50" height="50" relative="1" as="geometry">
                        <mxPoint x="920" y="1320.57" as="sourcePoint"/>
                        <mxPoint x="920" y="1040" as="targetPoint"/>
                    </mxGeometry>
                </mxCell>
                <mxCell id="243" value="" style="endArrow=none;html=1;strokeWidth=1;" parent="1" edge="1">
                    <mxGeometry width="50" height="50" relative="1" as="geometry">
                        <mxPoint x="920" y="1320.57" as="sourcePoint"/>
                        <mxPoint x="1080" y="1320.57" as="targetPoint"/>
                    </mxGeometry>
                </mxCell>
                <mxCell id="244" value="" style="endArrow=none;html=1;strokeWidth=1;" parent="1" edge="1">
                    <mxGeometry width="50" height="50" relative="1" as="geometry">
                        <mxPoint x="1080" y="1320.57" as="sourcePoint"/>
                        <mxPoint x="1080" y="1040" as="targetPoint"/>
                    </mxGeometry>
                </mxCell>
                <mxCell id="245" value="4" style="rounded=0;whiteSpace=wrap;html=1;fillColor=#f5f5f5;strokeColor=#666666;fontColor=#333333;" parent="1" vertex="1">
                    <mxGeometry x="960" y="1200" width="80" height="60" as="geometry"/>
                </mxCell>
                <mxCell id="246" value="1" style="rounded=0;whiteSpace=wrap;html=1;fillColor=#f5f5f5;strokeColor=#666666;fontColor=#333333;" parent="1" vertex="1">
                    <mxGeometry x="1120" y="1260" width="80" height="60" as="geometry"/>
                </mxCell>
                <mxCell id="247" value="" style="endArrow=none;html=1;strokeWidth=1;" parent="1" edge="1">
                    <mxGeometry width="50" height="50" relative="1" as="geometry">
                        <mxPoint x="1120" y="1320.0000000000002" as="sourcePoint"/>
                        <mxPoint x="1120" y="1040" as="targetPoint"/>
                    </mxGeometry>
                </mxCell>
                <mxCell id="248" value="" style="endArrow=none;html=1;strokeWidth=1;" parent="1" edge="1">
                    <mxGeometry width="50" height="50" relative="1" as="geometry">
                        <mxPoint x="1120" y="1320.0000000000002" as="sourcePoint"/>
                        <mxPoint x="1280" y="1320.0000000000002" as="targetPoint"/>
                    </mxGeometry>
                </mxCell>
                <mxCell id="249" value="" style="endArrow=none;html=1;strokeWidth=1;" parent="1" edge="1">
                    <mxGeometry width="50" height="50" relative="1" as="geometry">
                        <mxPoint x="1280" y="1320.0000000000002" as="sourcePoint"/>
                        <mxPoint x="1280" y="1040" as="targetPoint"/>
                    </mxGeometry>
                </mxCell>
                <mxCell id="250" value="2" style="rounded=0;whiteSpace=wrap;html=1;fillColor=#f5f5f5;strokeColor=#666666;fontColor=#333333;" parent="1" vertex="1">
                    <mxGeometry x="960" y="1280" width="40" height="40" as="geometry"/>
                </mxCell>
                <mxCell id="251" value="1" style="rounded=0;whiteSpace=wrap;html=1;fillColor=#f5f5f5;strokeColor=#666666;fontColor=#333333;" parent="1" vertex="1">
                    <mxGeometry x="920" y="1280" width="40" height="40" as="geometry"/>
                </mxCell>
                <mxCell id="252" value="5" style="rounded=0;whiteSpace=wrap;html=1;fillColor=#f5f5f5;strokeColor=#666666;fontColor=#333333;" parent="1" vertex="1">
                    <mxGeometry x="1120" y="1220" width="40" height="40" as="geometry"/>
                </mxCell>
                <mxCell id="253" value="3" style="rounded=0;whiteSpace=wrap;html=1;fillColor=#f5f5f5;strokeColor=#666666;fontColor=#333333;" parent="1" vertex="1">
                    <mxGeometry x="1200" y="1220" width="80" height="60" as="geometry"/>
                </mxCell>
                <mxCell id="254" value="4" style="rounded=0;whiteSpace=wrap;html=1;fillColor=#f5f5f5;strokeColor=#666666;fontColor=#333333;" parent="1" vertex="1">
                    <mxGeometry x="920" y="1240" width="40" height="40" as="geometry"/>
                </mxCell>
                <mxCell id="255" value="3" style="rounded=0;whiteSpace=wrap;html=1;fillColor=#f5f5f5;strokeColor=#666666;fontColor=#333333;" parent="1" vertex="1">
                    <mxGeometry x="1200" y="1280" width="40" height="40" as="geometry"/>
                </mxCell>
                <mxCell id="256" value="2" style="rounded=0;whiteSpace=wrap;html=1;fillColor=#f5f5f5;strokeColor=#666666;fontColor=#333333;" parent="1" vertex="1">
                    <mxGeometry x="1000" y="1260" width="80" height="60" as="geometry"/>
                </mxCell>
                <mxCell id="257" value="5" style="rounded=0;whiteSpace=wrap;html=1;fillColor=#f5f5f5;strokeColor=#666666;fontColor=#333333;" parent="1" vertex="1">
                    <mxGeometry x="1120" y="1160" width="80" height="60" as="geometry"/>
                </mxCell>
                <mxCell id="258" value="u: 5 + 5 * 2 = 15&lt;br&gt;t: 6" style="text;html=1;align=left;verticalAlign=middle;resizable=0;points=[];autosize=1;strokeColor=none;fillColor=none;" parent="1" vertex="1">
                    <mxGeometry x="960" y="1330" width="100" height="30" as="geometry"/>
                </mxCell>
                <mxCell id="259" value="u: 5 + 5 * 2 = 15&lt;br&gt;t: 6.5" style="text;html=1;align=left;verticalAlign=middle;resizable=0;points=[];autosize=1;strokeColor=none;fillColor=none;" parent="1" vertex="1">
                    <mxGeometry x="1160" y="1330" width="100" height="30" as="geometry"/>
                </mxCell>
                <mxCell id="260" value="9" style="rounded=0;whiteSpace=wrap;html=1;fillColor=#f5f5f5;strokeColor=#666666;fontColor=#333333;" parent="1" vertex="1">
                    <mxGeometry x="920" y="1080" width="80" height="60" as="geometry"/>
                </mxCell>
                <mxCell id="261" value="6" style="rounded=0;whiteSpace=wrap;html=1;fillColor=#f5f5f5;strokeColor=#666666;fontColor=#333333;" parent="1" vertex="1">
                    <mxGeometry x="920" y="1140" width="80" height="60" as="geometry"/>
                </mxCell>
                <mxCell id="262" value="8" style="rounded=0;whiteSpace=wrap;html=1;fillColor=#f5f5f5;strokeColor=#666666;fontColor=#333333;" parent="1" vertex="1">
                    <mxGeometry x="1000" y="1120" width="80" height="60" as="geometry"/>
                </mxCell>
                <mxCell id="263" value="7" style="rounded=0;whiteSpace=wrap;html=1;fillColor=#f5f5f5;strokeColor=#666666;fontColor=#333333;" parent="1" vertex="1">
                    <mxGeometry x="1200" y="1120" width="80" height="60" as="geometry"/>
                </mxCell>
                <mxCell id="264" value="10" style="rounded=0;whiteSpace=wrap;html=1;fillColor=#f5f5f5;strokeColor=#666666;fontColor=#333333;" parent="1" vertex="1">
                    <mxGeometry x="1120.17" y="1060" width="80" height="60" as="geometry"/>
                </mxCell>
                <mxCell id="265" value="6" style="rounded=0;whiteSpace=wrap;html=1;fillColor=#f5f5f5;strokeColor=#666666;fontColor=#333333;" parent="1" vertex="1">
                    <mxGeometry x="1040" y="1220" width="40" height="40" as="geometry"/>
                </mxCell>
                <mxCell id="266" value="7" style="rounded=0;whiteSpace=wrap;html=1;fillColor=#f5f5f5;strokeColor=#666666;fontColor=#333333;" parent="1" vertex="1">
                    <mxGeometry x="1200" y="1180" width="40" height="40" as="geometry"/>
                </mxCell>
                <mxCell id="267" value="8" style="rounded=0;whiteSpace=wrap;html=1;fillColor=#f5f5f5;strokeColor=#666666;fontColor=#333333;" parent="1" vertex="1">
                    <mxGeometry x="1040" y="1180" width="40" height="40" as="geometry"/>
                </mxCell>
                <mxCell id="268" value="9" style="rounded=0;whiteSpace=wrap;html=1;fillColor=#f5f5f5;strokeColor=#666666;fontColor=#333333;" parent="1" vertex="1">
                    <mxGeometry x="1120.17" y="1120" width="40" height="40" as="geometry"/>
                </mxCell>
                <mxCell id="269" value="10" style="rounded=0;whiteSpace=wrap;html=1;fillColor=#f5f5f5;strokeColor=#666666;fontColor=#333333;" parent="1" vertex="1">
                    <mxGeometry x="1160.17" y="1120" width="40" height="40" as="geometry"/>
                </mxCell>
                <mxCell id="270" value="&amp;nbsp;type-1 和 type-2 交替分配&lt;br&gt;最佳分配" style="text;html=1;align=center;verticalAlign=middle;resizable=0;points=[];autosize=1;strokeColor=none;fillColor=none;" parent="1" vertex="1">
                    <mxGeometry x="1020" y="1375" width="160" height="30" as="geometry"/>
                </mxCell>
                <mxCell id="300" value="" style="endArrow=none;html=1;strokeWidth=1;" parent="1" edge="1">
                    <mxGeometry width="50" height="50" relative="1" as="geometry">
                        <mxPoint x="40" y="1920.57" as="sourcePoint"/>
                        <mxPoint x="40" y="1440" as="targetPoint"/>
                    </mxGeometry>
                </mxCell>
                <mxCell id="301" value="" style="endArrow=none;html=1;strokeWidth=1;" parent="1" edge="1">
                    <mxGeometry width="50" height="50" relative="1" as="geometry">
                        <mxPoint x="40" y="1920.57" as="sourcePoint"/>
                        <mxPoint x="200" y="1920.57" as="targetPoint"/>
                    </mxGeometry>
                </mxCell>
                <mxCell id="302" value="" style="endArrow=none;html=1;strokeWidth=1;" parent="1" edge="1">
                    <mxGeometry width="50" height="50" relative="1" as="geometry">
                        <mxPoint x="200" y="1920.57" as="sourcePoint"/>
                        <mxPoint x="200" y="1440" as="targetPoint"/>
                    </mxGeometry>
                </mxCell>
                <mxCell id="305" value="" style="endArrow=none;html=1;strokeWidth=1;" parent="1" edge="1">
                    <mxGeometry width="50" height="50" relative="1" as="geometry">
                        <mxPoint x="240" y="1920.0000000000002" as="sourcePoint"/>
                        <mxPoint x="240" y="1440" as="targetPoint"/>
                    </mxGeometry>
                </mxCell>
                <mxCell id="306" value="" style="endArrow=none;html=1;strokeWidth=1;" parent="1" edge="1">
                    <mxGeometry width="50" height="50" relative="1" as="geometry">
                        <mxPoint x="240" y="1920.0000000000002" as="sourcePoint"/>
                        <mxPoint x="400" y="1920.0000000000002" as="targetPoint"/>
                    </mxGeometry>
                </mxCell>
                <mxCell id="307" value="" style="endArrow=none;html=1;strokeWidth=1;" parent="1" edge="1">
                    <mxGeometry width="50" height="50" relative="1" as="geometry">
                        <mxPoint x="400" y="1920.0000000000002" as="sourcePoint"/>
                        <mxPoint x="400" y="1440" as="targetPoint"/>
                    </mxGeometry>
                </mxCell>
                <mxCell id="309" value="1" style="rounded=0;whiteSpace=wrap;html=1;fillColor=#f5f5f5;strokeColor=#666666;fontColor=#333333;" parent="1" vertex="1">
                    <mxGeometry x="40" y="1860" width="40" height="60" as="geometry"/>
                </mxCell>
                <mxCell id="316" value="u: 5 + 5 * 3 = 20&lt;br&gt;w:&amp;nbsp;&lt;br&gt;h: 1.5 + 2 * 5 = 11.5" style="text;html=1;align=left;verticalAlign=middle;resizable=0;points=[];autosize=1;strokeColor=none;fillColor=none;" parent="1" vertex="1">
                    <mxGeometry x="80" y="1920" width="120" height="50" as="geometry"/>
                </mxCell>
                <mxCell id="317" value="u: 5 + 5 * 3 = 20&lt;br&gt;w:&amp;nbsp;&lt;br&gt;h: 11.5" style="text;html=1;align=left;verticalAlign=middle;resizable=0;points=[];autosize=1;strokeColor=none;fillColor=none;" parent="1" vertex="1">
                    <mxGeometry x="280" y="1920" width="100" height="50" as="geometry"/>
                </mxCell>
                <mxCell id="318" value="1" style="rounded=0;whiteSpace=wrap;html=1;fillColor=#f5f5f5;strokeColor=#666666;fontColor=#333333;" parent="1" vertex="1">
                    <mxGeometry x="80" y="1780" width="120" height="80" as="geometry"/>
                </mxCell>
                <mxCell id="328" value="先分配所有 type-1，再分配所有 type-2" style="text;html=1;align=center;verticalAlign=middle;resizable=0;points=[];autosize=1;strokeColor=none;fillColor=none;" parent="1" vertex="1">
                    <mxGeometry x="110" y="1980" width="220" height="20" as="geometry"/>
                </mxCell>
                <mxCell id="329" value="2" style="rounded=0;whiteSpace=wrap;html=1;fillColor=#f5f5f5;strokeColor=#666666;fontColor=#333333;" parent="1" vertex="1">
                    <mxGeometry x="240" y="1860" width="40" height="60" as="geometry"/>
                </mxCell>
                <mxCell id="330" value="3" style="rounded=0;whiteSpace=wrap;html=1;fillColor=#f5f5f5;strokeColor=#666666;fontColor=#333333;" parent="1" vertex="1">
                    <mxGeometry x="80" y="1860" width="40" height="60" as="geometry"/>
                </mxCell>
                <mxCell id="331" value="5" style="rounded=0;whiteSpace=wrap;html=1;fillColor=#f5f5f5;strokeColor=#666666;fontColor=#333333;" parent="1" vertex="1">
                    <mxGeometry x="120" y="1860" width="40" height="60" as="geometry"/>
                </mxCell>
                <mxCell id="332" value="7" style="rounded=0;whiteSpace=wrap;html=1;fillColor=#f5f5f5;strokeColor=#666666;fontColor=#333333;" parent="1" vertex="1">
                    <mxGeometry x="160" y="1860" width="40" height="60" as="geometry"/>
                </mxCell>
                <mxCell id="333" value="9" style="rounded=0;whiteSpace=wrap;html=1;fillColor=#f5f5f5;strokeColor=#666666;fontColor=#333333;" parent="1" vertex="1">
                    <mxGeometry x="40" y="1800" width="40" height="60" as="geometry"/>
                </mxCell>
                <mxCell id="334" value="4" style="rounded=0;whiteSpace=wrap;html=1;fillColor=#f5f5f5;strokeColor=#666666;fontColor=#333333;" parent="1" vertex="1">
                    <mxGeometry x="280" y="1860" width="40" height="60" as="geometry"/>
                </mxCell>
                <mxCell id="335" value="6" style="rounded=0;whiteSpace=wrap;html=1;fillColor=#f5f5f5;strokeColor=#666666;fontColor=#333333;" parent="1" vertex="1">
                    <mxGeometry x="320" y="1860" width="40" height="60" as="geometry"/>
                </mxCell>
                <mxCell id="336" value="8" style="rounded=0;whiteSpace=wrap;html=1;fillColor=#f5f5f5;strokeColor=#666666;fontColor=#333333;" parent="1" vertex="1">
                    <mxGeometry x="360" y="1860" width="40" height="60" as="geometry"/>
                </mxCell>
                <mxCell id="337" value="10" style="rounded=0;whiteSpace=wrap;html=1;fillColor=#f5f5f5;strokeColor=#666666;fontColor=#333333;" parent="1" vertex="1">
                    <mxGeometry x="240" y="1800" width="40" height="60" as="geometry"/>
                </mxCell>
                <mxCell id="338" value="3" style="rounded=0;whiteSpace=wrap;html=1;fillColor=#f5f5f5;strokeColor=#666666;fontColor=#333333;" parent="1" vertex="1">
                    <mxGeometry x="40" y="1700" width="120" height="80" as="geometry"/>
                </mxCell>
                <mxCell id="339" value="5" style="rounded=0;whiteSpace=wrap;html=1;fillColor=#f5f5f5;strokeColor=#666666;fontColor=#333333;" parent="1" vertex="1">
                    <mxGeometry x="40" y="1620" width="120" height="80" as="geometry"/>
                </mxCell>
                <mxCell id="340" value="7" style="rounded=0;whiteSpace=wrap;html=1;fillColor=#f5f5f5;strokeColor=#666666;fontColor=#333333;" parent="1" vertex="1">
                    <mxGeometry x="40" y="1540" width="120" height="80" as="geometry"/>
                </mxCell>
                <mxCell id="341" value="9" style="rounded=0;whiteSpace=wrap;html=1;fillColor=#f5f5f5;strokeColor=#666666;fontColor=#333333;" parent="1" vertex="1">
                    <mxGeometry x="40" y="1460" width="120" height="80" as="geometry"/>
                </mxCell>
                <mxCell id="342" value="2" style="rounded=0;whiteSpace=wrap;html=1;fillColor=#f5f5f5;strokeColor=#666666;fontColor=#333333;" parent="1" vertex="1">
                    <mxGeometry x="280" y="1780" width="120" height="80" as="geometry"/>
                </mxCell>
                <mxCell id="343" value="4" style="rounded=0;whiteSpace=wrap;html=1;fillColor=#f5f5f5;strokeColor=#666666;fontColor=#333333;" parent="1" vertex="1">
                    <mxGeometry x="240" y="1700" width="120" height="80" as="geometry"/>
                </mxCell>
                <mxCell id="344" value="6" style="rounded=0;whiteSpace=wrap;html=1;fillColor=#f5f5f5;strokeColor=#666666;fontColor=#333333;" parent="1" vertex="1">
                    <mxGeometry x="240" y="1620" width="120" height="80" as="geometry"/>
                </mxCell>
                <mxCell id="345" value="8" style="rounded=0;whiteSpace=wrap;html=1;fillColor=#f5f5f5;strokeColor=#666666;fontColor=#333333;" parent="1" vertex="1">
                    <mxGeometry x="240" y="1540" width="120" height="80" as="geometry"/>
                </mxCell>
                <mxCell id="346" value="10" style="rounded=0;whiteSpace=wrap;html=1;fillColor=#f5f5f5;strokeColor=#666666;fontColor=#333333;" parent="1" vertex="1">
                    <mxGeometry x="240" y="1460" width="120" height="80" as="geometry"/>
                </mxCell>
                <mxCell id="377" value="" style="endArrow=none;html=1;strokeWidth=1;" parent="1" edge="1">
                    <mxGeometry width="50" height="50" relative="1" as="geometry">
                        <mxPoint x="480" y="1920.5699999999997" as="sourcePoint"/>
                        <mxPoint x="480" y="1440" as="targetPoint"/>
                    </mxGeometry>
                </mxCell>
                <mxCell id="378" value="" style="endArrow=none;html=1;strokeWidth=1;" parent="1" edge="1">
                    <mxGeometry width="50" height="50" relative="1" as="geometry">
                        <mxPoint x="480" y="1920.5699999999997" as="sourcePoint"/>
                        <mxPoint x="640" y="1920.5699999999997" as="targetPoint"/>
                    </mxGeometry>
                </mxCell>
                <mxCell id="379" value="" style="endArrow=none;html=1;strokeWidth=1;" parent="1" edge="1">
                    <mxGeometry width="50" height="50" relative="1" as="geometry">
                        <mxPoint x="640" y="1920.5699999999997" as="sourcePoint"/>
                        <mxPoint x="640" y="1440" as="targetPoint"/>
                    </mxGeometry>
                </mxCell>
                <mxCell id="380" value="" style="endArrow=none;html=1;strokeWidth=1;" parent="1" edge="1">
                    <mxGeometry width="50" height="50" relative="1" as="geometry">
                        <mxPoint x="680" y="1920" as="sourcePoint"/>
                        <mxPoint x="680" y="1440" as="targetPoint"/>
                    </mxGeometry>
                </mxCell>
                <mxCell id="381" value="" style="endArrow=none;html=1;strokeWidth=1;" parent="1" edge="1">
                    <mxGeometry width="50" height="50" relative="1" as="geometry">
                        <mxPoint x="680" y="1920" as="sourcePoint"/>
                        <mxPoint x="840" y="1920" as="targetPoint"/>
                    </mxGeometry>
                </mxCell>
                <mxCell id="382" value="" style="endArrow=none;html=1;strokeWidth=1;" parent="1" edge="1">
                    <mxGeometry width="50" height="50" relative="1" as="geometry">
                        <mxPoint x="840" y="1920" as="sourcePoint"/>
                        <mxPoint x="840" y="1440" as="targetPoint"/>
                    </mxGeometry>
                </mxCell>
                <mxCell id="383" value="1" style="rounded=0;whiteSpace=wrap;html=1;fillColor=#f5f5f5;strokeColor=#666666;fontColor=#333333;" parent="1" vertex="1">
                    <mxGeometry x="480" y="1860" width="40" height="60" as="geometry"/>
                </mxCell>
                <mxCell id="384" value="u: 5 + 5 * 3 = 20&lt;br&gt;w:&amp;nbsp;&lt;br&gt;h: 1.5 + 2 * 5 = 11.5" style="text;html=1;align=left;verticalAlign=middle;resizable=0;points=[];autosize=1;strokeColor=none;fillColor=none;" parent="1" vertex="1">
                    <mxGeometry x="520" y="1920" width="120" height="50" as="geometry"/>
                </mxCell>
                <mxCell id="385" value="u: 5 + 5 * 3 = 20&lt;br&gt;w:&amp;nbsp;&lt;br&gt;h: 11.5" style="text;html=1;align=left;verticalAlign=middle;resizable=0;points=[];autosize=1;strokeColor=none;fillColor=none;" parent="1" vertex="1">
                    <mxGeometry x="720" y="1920" width="100" height="50" as="geometry"/>
                </mxCell>
                <mxCell id="386" value="1" style="rounded=0;whiteSpace=wrap;html=1;fillColor=#f5f5f5;strokeColor=#666666;fontColor=#333333;" parent="1" vertex="1">
                    <mxGeometry x="520" y="1780" width="120" height="80" as="geometry"/>
                </mxCell>
                <mxCell id="387" value="先分配所有 type-1，再分配所有 type-2" style="text;html=1;align=center;verticalAlign=middle;resizable=0;points=[];autosize=1;strokeColor=none;fillColor=none;" parent="1" vertex="1">
                    <mxGeometry x="550" y="1980" width="220" height="20" as="geometry"/>
                </mxCell>
                <mxCell id="388" value="2" style="rounded=0;whiteSpace=wrap;html=1;fillColor=#f5f5f5;strokeColor=#666666;fontColor=#333333;" parent="1" vertex="1">
                    <mxGeometry x="520" y="1860" width="40" height="60" as="geometry"/>
                </mxCell>
                <mxCell id="389" value="3" style="rounded=0;whiteSpace=wrap;html=1;fillColor=#f5f5f5;strokeColor=#666666;fontColor=#333333;" parent="1" vertex="1">
                    <mxGeometry x="560" y="1860" width="40" height="60" as="geometry"/>
                </mxCell>
                <mxCell id="390" value="5" style="rounded=0;whiteSpace=wrap;html=1;fillColor=#f5f5f5;strokeColor=#666666;fontColor=#333333;" parent="1" vertex="1">
                    <mxGeometry x="720" y="1860" width="40" height="60" as="geometry"/>
                </mxCell>
                <mxCell id="391" value="7" style="rounded=0;whiteSpace=wrap;html=1;fillColor=#f5f5f5;strokeColor=#666666;fontColor=#333333;" parent="1" vertex="1">
                    <mxGeometry x="600" y="1860" width="40" height="60" as="geometry"/>
                </mxCell>
                <mxCell id="392" value="9" style="rounded=0;whiteSpace=wrap;html=1;fillColor=#f5f5f5;strokeColor=#666666;fontColor=#333333;" parent="1" vertex="1">
                    <mxGeometry x="480" y="1800" width="40" height="60" as="geometry"/>
                </mxCell>
                <mxCell id="393" value="4" style="rounded=0;whiteSpace=wrap;html=1;fillColor=#f5f5f5;strokeColor=#666666;fontColor=#333333;" parent="1" vertex="1">
                    <mxGeometry x="680" y="1860" width="40" height="60" as="geometry"/>
                </mxCell>
                <mxCell id="394" value="6" style="rounded=0;whiteSpace=wrap;html=1;fillColor=#f5f5f5;strokeColor=#666666;fontColor=#333333;" parent="1" vertex="1">
                    <mxGeometry x="760" y="1860" width="40" height="60" as="geometry"/>
                </mxCell>
                <mxCell id="395" value="8" style="rounded=0;whiteSpace=wrap;html=1;fillColor=#f5f5f5;strokeColor=#666666;fontColor=#333333;" parent="1" vertex="1">
                    <mxGeometry x="800" y="1860" width="40" height="60" as="geometry"/>
                </mxCell>
                <mxCell id="396" value="10" style="rounded=0;whiteSpace=wrap;html=1;fillColor=#f5f5f5;strokeColor=#666666;fontColor=#333333;" parent="1" vertex="1">
                    <mxGeometry x="680" y="1800" width="40" height="60" as="geometry"/>
                </mxCell>
                <mxCell id="397" value="3" style="rounded=0;whiteSpace=wrap;html=1;fillColor=#f5f5f5;strokeColor=#666666;fontColor=#333333;" parent="1" vertex="1">
                    <mxGeometry x="480" y="1700" width="120" height="80" as="geometry"/>
                </mxCell>
                <mxCell id="398" value="5" style="rounded=0;whiteSpace=wrap;html=1;fillColor=#f5f5f5;strokeColor=#666666;fontColor=#333333;" parent="1" vertex="1">
                    <mxGeometry x="480" y="1620" width="120" height="80" as="geometry"/>
                </mxCell>
                <mxCell id="399" value="7" style="rounded=0;whiteSpace=wrap;html=1;fillColor=#f5f5f5;strokeColor=#666666;fontColor=#333333;" parent="1" vertex="1">
                    <mxGeometry x="480" y="1540" width="120" height="80" as="geometry"/>
                </mxCell>
                <mxCell id="400" value="9" style="rounded=0;whiteSpace=wrap;html=1;fillColor=#f5f5f5;strokeColor=#666666;fontColor=#333333;" parent="1" vertex="1">
                    <mxGeometry x="480" y="1460" width="120" height="80" as="geometry"/>
                </mxCell>
                <mxCell id="401" value="2" style="rounded=0;whiteSpace=wrap;html=1;fillColor=#f5f5f5;strokeColor=#666666;fontColor=#333333;" parent="1" vertex="1">
                    <mxGeometry x="720" y="1780" width="120" height="80" as="geometry"/>
                </mxCell>
                <mxCell id="402" value="4" style="rounded=0;whiteSpace=wrap;html=1;fillColor=#f5f5f5;strokeColor=#666666;fontColor=#333333;" parent="1" vertex="1">
                    <mxGeometry x="680" y="1700" width="120" height="80" as="geometry"/>
                </mxCell>
                <mxCell id="403" value="6" style="rounded=0;whiteSpace=wrap;html=1;fillColor=#f5f5f5;strokeColor=#666666;fontColor=#333333;" parent="1" vertex="1">
                    <mxGeometry x="680" y="1620" width="120" height="80" as="geometry"/>
                </mxCell>
                <mxCell id="404" value="8" style="rounded=0;whiteSpace=wrap;html=1;fillColor=#f5f5f5;strokeColor=#666666;fontColor=#333333;" parent="1" vertex="1">
                    <mxGeometry x="680" y="1540" width="120" height="80" as="geometry"/>
                </mxCell>
                <mxCell id="405" value="10" style="rounded=0;whiteSpace=wrap;html=1;fillColor=#f5f5f5;strokeColor=#666666;fontColor=#333333;" parent="1" vertex="1">
                    <mxGeometry x="680" y="1460" width="120" height="80" as="geometry"/>
                </mxCell>
                <mxCell id="406" value="" style="endArrow=none;html=1;strokeWidth=1;" parent="1" edge="1">
                    <mxGeometry width="50" height="50" relative="1" as="geometry">
                        <mxPoint x="40.00000000000003" y="1320.57" as="sourcePoint"/>
                        <mxPoint x="40.00000000000003" y="1040" as="targetPoint"/>
                    </mxGeometry>
                </mxCell>
                <mxCell id="407" value="" style="endArrow=none;html=1;strokeWidth=1;" parent="1" edge="1">
                    <mxGeometry width="50" height="50" relative="1" as="geometry">
                        <mxPoint x="40.00000000000003" y="1320.57" as="sourcePoint"/>
                        <mxPoint x="200.00000000000003" y="1320.57" as="targetPoint"/>
                    </mxGeometry>
                </mxCell>
                <mxCell id="408" value="" style="endArrow=none;html=1;strokeWidth=1;" parent="1" edge="1">
                    <mxGeometry width="50" height="50" relative="1" as="geometry">
                        <mxPoint x="200.00000000000003" y="1320.57" as="sourcePoint"/>
                        <mxPoint x="200.00000000000003" y="1040" as="targetPoint"/>
                    </mxGeometry>
                </mxCell>
                <mxCell id="409" value="4" style="rounded=0;whiteSpace=wrap;html=1;fillColor=#f5f5f5;strokeColor=#666666;fontColor=#333333;" parent="1" vertex="1">
                    <mxGeometry x="280" y="1200" width="80" height="60" as="geometry"/>
                </mxCell>
                <mxCell id="410" value="1" style="rounded=0;whiteSpace=wrap;html=1;fillColor=#f5f5f5;strokeColor=#666666;fontColor=#333333;" parent="1" vertex="1">
                    <mxGeometry x="240.00000000000003" y="1260" width="80" height="60" as="geometry"/>
                </mxCell>
                <mxCell id="411" value="" style="endArrow=none;html=1;strokeWidth=1;" parent="1" edge="1">
                    <mxGeometry width="50" height="50" relative="1" as="geometry">
                        <mxPoint x="240.00000000000003" y="1320" as="sourcePoint"/>
                        <mxPoint x="240.00000000000003" y="1040" as="targetPoint"/>
                    </mxGeometry>
                </mxCell>
                <mxCell id="412" value="" style="endArrow=none;html=1;strokeWidth=1;" parent="1" edge="1">
                    <mxGeometry width="50" height="50" relative="1" as="geometry">
                        <mxPoint x="240.00000000000003" y="1320" as="sourcePoint"/>
                        <mxPoint x="400" y="1320" as="targetPoint"/>
                    </mxGeometry>
                </mxCell>
                <mxCell id="413" value="" style="endArrow=none;html=1;strokeWidth=1;" parent="1" edge="1">
                    <mxGeometry width="50" height="50" relative="1" as="geometry">
                        <mxPoint x="400" y="1320" as="sourcePoint"/>
                        <mxPoint x="400" y="1040" as="targetPoint"/>
                    </mxGeometry>
                </mxCell>
                <mxCell id="414" value="2" style="rounded=0;whiteSpace=wrap;html=1;fillColor=#f5f5f5;strokeColor=#666666;fontColor=#333333;" parent="1" vertex="1">
                    <mxGeometry x="80.00000000000003" y="1280" width="40" height="40" as="geometry"/>
                </mxCell>
                <mxCell id="415" value="1" style="rounded=0;whiteSpace=wrap;html=1;fillColor=#f5f5f5;strokeColor=#666666;fontColor=#333333;" parent="1" vertex="1">
                    <mxGeometry x="40.00000000000003" y="1280" width="40" height="40" as="geometry"/>
                </mxCell>
                <mxCell id="416" value="5" style="rounded=0;whiteSpace=wrap;html=1;fillColor=#f5f5f5;strokeColor=#666666;fontColor=#333333;" parent="1" vertex="1">
                    <mxGeometry x="160.00000000000003" y="1280" width="40" height="40" as="geometry"/>
                </mxCell>
                <mxCell id="417" value="3" style="rounded=0;whiteSpace=wrap;html=1;fillColor=#f5f5f5;strokeColor=#666666;fontColor=#333333;" parent="1" vertex="1">
                    <mxGeometry x="40.00000000000003" y="1220" width="80" height="60" as="geometry"/>
                </mxCell>
                <mxCell id="418" value="4" style="rounded=0;whiteSpace=wrap;html=1;fillColor=#f5f5f5;strokeColor=#666666;fontColor=#333333;" parent="1" vertex="1">
                    <mxGeometry x="240.00000000000003" y="1220" width="40" height="40" as="geometry"/>
                </mxCell>
                <mxCell id="419" value="3" style="rounded=0;whiteSpace=wrap;html=1;fillColor=#f5f5f5;strokeColor=#666666;fontColor=#333333;" parent="1" vertex="1">
                    <mxGeometry x="120.00000000000003" y="1280" width="40" height="40" as="geometry"/>
                </mxCell>
                <mxCell id="420" value="2" style="rounded=0;whiteSpace=wrap;html=1;fillColor=#f5f5f5;strokeColor=#666666;fontColor=#333333;" parent="1" vertex="1">
                    <mxGeometry x="320" y="1260" width="80" height="60" as="geometry"/>
                </mxCell>
                <mxCell id="421" value="5" style="rounded=0;whiteSpace=wrap;html=1;fillColor=#f5f5f5;strokeColor=#666666;fontColor=#333333;" parent="1" vertex="1">
                    <mxGeometry x="120.00000000000003" y="1220" width="80" height="60" as="geometry"/>
                </mxCell>
                <mxCell id="422" value="u: 5 + 5 * 2 = 15&lt;br&gt;t: 5.5" style="text;html=1;align=left;verticalAlign=middle;resizable=0;points=[];autosize=1;strokeColor=none;fillColor=none;" parent="1" vertex="1">
                    <mxGeometry x="80.00000000000003" y="1330" width="100" height="30" as="geometry"/>
                </mxCell>
                <mxCell id="423" value="u: 5 + 5 * 2 = 15&lt;br&gt;t: 6.5" style="text;html=1;align=left;verticalAlign=middle;resizable=0;points=[];autosize=1;strokeColor=none;fillColor=none;" parent="1" vertex="1">
                    <mxGeometry x="280" y="1330" width="100" height="30" as="geometry"/>
                </mxCell>
                <mxCell id="424" value="9" style="rounded=0;whiteSpace=wrap;html=1;fillColor=#f5f5f5;strokeColor=#666666;fontColor=#333333;" parent="1" vertex="1">
                    <mxGeometry x="40.00000000000003" y="1100" width="80" height="60" as="geometry"/>
                </mxCell>
                <mxCell id="425" value="6" style="rounded=0;whiteSpace=wrap;html=1;fillColor=#f5f5f5;strokeColor=#666666;fontColor=#333333;" parent="1" vertex="1">
                    <mxGeometry x="240.00000000000003" y="1140" width="80" height="60" as="geometry"/>
                </mxCell>
                <mxCell id="426" value="8" style="rounded=0;whiteSpace=wrap;html=1;fillColor=#f5f5f5;strokeColor=#666666;fontColor=#333333;" parent="1" vertex="1">
                    <mxGeometry x="320" y="1120" width="80" height="60" as="geometry"/>
                </mxCell>
                <mxCell id="427" value="7" style="rounded=0;whiteSpace=wrap;html=1;fillColor=#f5f5f5;strokeColor=#666666;fontColor=#333333;" parent="1" vertex="1">
                    <mxGeometry x="80.00000000000003" y="1160" width="80" height="60" as="geometry"/>
                </mxCell>
                <mxCell id="428" value="10" style="rounded=0;whiteSpace=wrap;html=1;fillColor=#f5f5f5;strokeColor=#666666;fontColor=#333333;" parent="1" vertex="1">
                    <mxGeometry x="280" y="1060" width="80" height="60" as="geometry"/>
                </mxCell>
                <mxCell id="429" value="6" style="rounded=0;whiteSpace=wrap;html=1;fillColor=#f5f5f5;strokeColor=#666666;fontColor=#333333;" parent="1" vertex="1">
                    <mxGeometry x="360" y="1220" width="40" height="40" as="geometry"/>
                </mxCell>
                <mxCell id="430" value="7" style="rounded=0;whiteSpace=wrap;html=1;fillColor=#f5f5f5;strokeColor=#666666;fontColor=#333333;" parent="1" vertex="1">
                    <mxGeometry x="40.00000000000003" y="1180" width="40" height="40" as="geometry"/>
                </mxCell>
                <mxCell id="431" value="8" style="rounded=0;whiteSpace=wrap;html=1;fillColor=#f5f5f5;strokeColor=#666666;fontColor=#333333;" parent="1" vertex="1">
                    <mxGeometry x="360" y="1180" width="40" height="40" as="geometry"/>
                </mxCell>
                <mxCell id="432" value="9" style="rounded=0;whiteSpace=wrap;html=1;fillColor=#f5f5f5;strokeColor=#666666;fontColor=#333333;" parent="1" vertex="1">
                    <mxGeometry x="160.00000000000003" y="1180" width="40" height="40" as="geometry"/>
                </mxCell>
                <mxCell id="433" value="10" style="rounded=0;whiteSpace=wrap;html=1;fillColor=#f5f5f5;strokeColor=#666666;fontColor=#333333;" parent="1" vertex="1">
                    <mxGeometry x="240.00000000000003" y="1100" width="40" height="40" as="geometry"/>
                </mxCell>
                <mxCell id="434" value="&amp;nbsp;type-1 和 type-2 交替分配" style="text;html=1;align=center;verticalAlign=middle;resizable=0;points=[];autosize=1;strokeColor=none;fillColor=none;" parent="1" vertex="1">
                    <mxGeometry x="140.00000000000003" y="1380" width="160" height="20" as="geometry"/>
                </mxCell>
                <mxCell id="436" value="" style="endArrow=none;html=1;strokeWidth=1;" parent="1" edge="1">
                    <mxGeometry width="50" height="50" relative="1" as="geometry">
                        <mxPoint x="480" y="1320.57" as="sourcePoint"/>
                        <mxPoint x="480" y="1040" as="targetPoint"/>
                    </mxGeometry>
                </mxCell>
                <mxCell id="437" value="" style="endArrow=none;html=1;strokeWidth=1;" parent="1" edge="1">
                    <mxGeometry width="50" height="50" relative="1" as="geometry">
                        <mxPoint x="480" y="1320.57" as="sourcePoint"/>
                        <mxPoint x="640" y="1320.57" as="targetPoint"/>
                    </mxGeometry>
                </mxCell>
                <mxCell id="438" value="" style="endArrow=none;html=1;strokeWidth=1;" parent="1" edge="1">
                    <mxGeometry width="50" height="50" relative="1" as="geometry">
                        <mxPoint x="640" y="1320.57" as="sourcePoint"/>
                        <mxPoint x="640" y="1040" as="targetPoint"/>
                    </mxGeometry>
                </mxCell>
                <mxCell id="439" value="4" style="rounded=0;whiteSpace=wrap;html=1;fillColor=#f5f5f5;strokeColor=#666666;fontColor=#333333;" parent="1" vertex="1">
                    <mxGeometry x="680" y="1200" width="80" height="60" as="geometry"/>
                </mxCell>
                <mxCell id="440" value="1" style="rounded=0;whiteSpace=wrap;html=1;fillColor=#f5f5f5;strokeColor=#666666;fontColor=#333333;" parent="1" vertex="1">
                    <mxGeometry x="480" y="1260" width="80" height="60" as="geometry"/>
                </mxCell>
                <mxCell id="441" value="" style="endArrow=none;html=1;strokeWidth=1;" parent="1" edge="1">
                    <mxGeometry width="50" height="50" relative="1" as="geometry">
                        <mxPoint x="680" y="1320" as="sourcePoint"/>
                        <mxPoint x="680" y="1040" as="targetPoint"/>
                    </mxGeometry>
                </mxCell>
                <mxCell id="442" value="" style="endArrow=none;html=1;strokeWidth=1;" parent="1" edge="1">
                    <mxGeometry width="50" height="50" relative="1" as="geometry">
                        <mxPoint x="680" y="1320" as="sourcePoint"/>
                        <mxPoint x="840" y="1320" as="targetPoint"/>
                    </mxGeometry>
                </mxCell>
                <mxCell id="443" value="" style="endArrow=none;html=1;strokeWidth=1;" parent="1" edge="1">
                    <mxGeometry width="50" height="50" relative="1" as="geometry">
                        <mxPoint x="840" y="1320" as="sourcePoint"/>
                        <mxPoint x="840" y="1040" as="targetPoint"/>
                    </mxGeometry>
                </mxCell>
                <mxCell id="444" value="2" style="rounded=0;whiteSpace=wrap;html=1;fillColor=#f5f5f5;strokeColor=#666666;fontColor=#333333;" parent="1" vertex="1">
                    <mxGeometry x="560" y="1280" width="40" height="40" as="geometry"/>
                </mxCell>
                <mxCell id="445" value="1" style="rounded=0;whiteSpace=wrap;html=1;fillColor=#f5f5f5;strokeColor=#666666;fontColor=#333333;" parent="1" vertex="1">
                    <mxGeometry x="680" y="1280" width="40" height="40" as="geometry"/>
                </mxCell>
                <mxCell id="446" value="5" style="rounded=0;whiteSpace=wrap;html=1;fillColor=#f5f5f5;strokeColor=#666666;fontColor=#333333;" parent="1" vertex="1">
                    <mxGeometry x="800" y="1240" width="40" height="40" as="geometry"/>
                </mxCell>
                <mxCell id="447" value="3" style="rounded=0;whiteSpace=wrap;html=1;fillColor=#f5f5f5;strokeColor=#666666;fontColor=#333333;" parent="1" vertex="1">
                    <mxGeometry x="560" y="1220" width="80" height="60" as="geometry"/>
                </mxCell>
                <mxCell id="448" value="4" style="rounded=0;whiteSpace=wrap;html=1;fillColor=#f5f5f5;strokeColor=#666666;fontColor=#333333;" parent="1" vertex="1">
                    <mxGeometry x="480" y="1220" width="40" height="40" as="geometry"/>
                </mxCell>
                <mxCell id="449" value="3" style="rounded=0;whiteSpace=wrap;html=1;fillColor=#f5f5f5;strokeColor=#666666;fontColor=#333333;" parent="1" vertex="1">
                    <mxGeometry x="800" y="1280" width="40" height="40" as="geometry"/>
                </mxCell>
                <mxCell id="451" value="5" style="rounded=0;whiteSpace=wrap;html=1;fillColor=#f5f5f5;strokeColor=#666666;fontColor=#333333;" parent="1" vertex="1">
                    <mxGeometry x="480" y="1160" width="80" height="60" as="geometry"/>
                </mxCell>
                <mxCell id="452" value="u: 5 + 5 * 2 = 15&lt;br&gt;t: 6.5" style="text;html=1;align=left;verticalAlign=middle;resizable=0;points=[];autosize=1;strokeColor=none;fillColor=none;" parent="1" vertex="1">
                    <mxGeometry x="520" y="1330" width="100" height="30" as="geometry"/>
                </mxCell>
                <mxCell id="453" value="u: 5 + 5 * 2 = 15&lt;br&gt;t: 6.5" style="text;html=1;align=left;verticalAlign=middle;resizable=0;points=[];autosize=1;strokeColor=none;fillColor=none;" parent="1" vertex="1">
                    <mxGeometry x="720" y="1330" width="100" height="30" as="geometry"/>
                </mxCell>
                <mxCell id="454" value="9" style="rounded=0;whiteSpace=wrap;html=1;fillColor=#f5f5f5;strokeColor=#666666;fontColor=#333333;" parent="1" vertex="1">
                    <mxGeometry x="480" y="1060" width="80" height="60" as="geometry"/>
                </mxCell>
                <mxCell id="455" value="6" style="rounded=0;whiteSpace=wrap;html=1;fillColor=#f5f5f5;strokeColor=#666666;fontColor=#333333;" parent="1" vertex="1">
                    <mxGeometry x="760" y="1180" width="80" height="60" as="geometry"/>
                </mxCell>
                <mxCell id="456" value="8" style="rounded=0;whiteSpace=wrap;html=1;fillColor=#f5f5f5;strokeColor=#666666;fontColor=#333333;" parent="1" vertex="1">
                    <mxGeometry x="720" y="1120" width="80" height="60" as="geometry"/>
                </mxCell>
                <mxCell id="457" value="7" style="rounded=0;whiteSpace=wrap;html=1;fillColor=#f5f5f5;strokeColor=#666666;fontColor=#333333;" parent="1" vertex="1">
                    <mxGeometry x="560" y="1120" width="80" height="60" as="geometry"/>
                </mxCell>
                <mxCell id="458" value="10" style="rounded=0;whiteSpace=wrap;html=1;fillColor=#f5f5f5;strokeColor=#666666;fontColor=#333333;" parent="1" vertex="1">
                    <mxGeometry x="680" y="1060" width="80" height="60" as="geometry"/>
                </mxCell>
                <mxCell id="459" value="6" style="rounded=0;whiteSpace=wrap;html=1;fillColor=#f5f5f5;strokeColor=#666666;fontColor=#333333;" parent="1" vertex="1">
                    <mxGeometry x="560" y="1180" width="40" height="40" as="geometry"/>
                </mxCell>
                <mxCell id="460" value="7" style="rounded=0;whiteSpace=wrap;html=1;fillColor=#f5f5f5;strokeColor=#666666;fontColor=#333333;" parent="1" vertex="1">
                    <mxGeometry x="680" y="1160" width="40" height="40" as="geometry"/>
                </mxCell>
                <mxCell id="461" value="8" style="rounded=0;whiteSpace=wrap;html=1;fillColor=#f5f5f5;strokeColor=#666666;fontColor=#333333;" parent="1" vertex="1">
                    <mxGeometry x="480" y="1120" width="40" height="40" as="geometry"/>
                </mxCell>
                <mxCell id="462" value="9" style="rounded=0;whiteSpace=wrap;html=1;fillColor=#f5f5f5;strokeColor=#666666;fontColor=#333333;" parent="1" vertex="1">
                    <mxGeometry x="800" y="1140" width="40" height="40" as="geometry"/>
                </mxCell>
                <mxCell id="463" value="10" style="rounded=0;whiteSpace=wrap;html=1;fillColor=#f5f5f5;strokeColor=#666666;fontColor=#333333;" parent="1" vertex="1">
                    <mxGeometry x="560" y="1080" width="40" height="40" as="geometry"/>
                </mxCell>
                <mxCell id="464" value="&amp;nbsp;type-2 和 type-1 交替分配" style="text;html=1;align=center;verticalAlign=middle;resizable=0;points=[];autosize=1;strokeColor=none;fillColor=none;" parent="1" vertex="1">
                    <mxGeometry x="580" y="1380" width="160" height="20" as="geometry"/>
                </mxCell>
                <mxCell id="465" value="2" style="rounded=0;whiteSpace=wrap;html=1;fillColor=#f5f5f5;strokeColor=#666666;fontColor=#333333;" parent="1" vertex="1">
                    <mxGeometry x="720" y="1260" width="80" height="60" as="geometry"/>
                </mxCell>
                <mxCell id="466" value="&lt;span style=&quot;color: rgb(0 , 0 , 0) ; text-align: left&quot;&gt;cpu: 1&lt;/span&gt;&lt;br style=&quot;color: rgb(0 , 0 , 0) ; text-align: left&quot;&gt;&lt;span style=&quot;color: rgb(0 , 0 , 0) ; text-align: left&quot;&gt;time: 1&lt;/span&gt;" style="rounded=0;whiteSpace=wrap;html=1;fillColor=#f5f5f5;strokeColor=#666666;fontColor=#333333;gradientColor=none;" parent="1" vertex="1">
                    <mxGeometry x="39" y="560" width="40" height="40" as="geometry"/>
                </mxCell>
                <mxCell id="467" value="&lt;span style=&quot;color: rgb(0 , 0 , 0) ; text-align: left&quot;&gt;cpu: 2&lt;/span&gt;&lt;br style=&quot;color: rgb(0 , 0 , 0) ; text-align: left&quot;&gt;&lt;span style=&quot;color: rgb(0 , 0 , 0) ; text-align: left&quot;&gt;time: 1.5&lt;/span&gt;" style="rounded=0;whiteSpace=wrap;html=1;fillColor=#f5f5f5;strokeColor=#666666;fontColor=#333333;" parent="1" vertex="1">
                    <mxGeometry x="120" y="550" width="80" height="60" as="geometry"/>
                </mxCell>
                <mxCell id="500" value="" style="endArrow=none;html=1;strokeWidth=2;strokeColor=#666666;dashed=1;" parent="1" edge="1">
                    <mxGeometry width="50" height="50" relative="1" as="geometry">
                        <mxPoint x="10" y="700" as="sourcePoint"/>
                        <mxPoint x="880" y="700" as="targetPoint"/>
                    </mxGeometry>
                </mxCell>
                <mxCell id="501" value="" style="endArrow=none;html=1;strokeWidth=2;strokeColor=#666666;dashed=1;" parent="1" edge="1">
                    <mxGeometry width="50" height="50" relative="1" as="geometry">
                        <mxPoint x="10" y="1060" as="sourcePoint"/>
                        <mxPoint x="880" y="1060" as="targetPoint"/>
                    </mxGeometry>
                </mxCell>
                <mxCell id="502" value="" style="endArrow=none;html=1;strokeWidth=1;" parent="1" edge="1">
                    <mxGeometry width="50" height="50" relative="1" as="geometry">
                        <mxPoint x="1360" y="1320.57" as="sourcePoint"/>
                        <mxPoint x="1360" y="1040" as="targetPoint"/>
                    </mxGeometry>
                </mxCell>
                <mxCell id="503" value="" style="endArrow=none;html=1;strokeWidth=1;" parent="1" edge="1">
                    <mxGeometry width="50" height="50" relative="1" as="geometry">
                        <mxPoint x="1360" y="1320.57" as="sourcePoint"/>
                        <mxPoint x="1520" y="1320.57" as="targetPoint"/>
                    </mxGeometry>
                </mxCell>
                <mxCell id="504" value="" style="endArrow=none;html=1;strokeWidth=1;" parent="1" edge="1">
                    <mxGeometry width="50" height="50" relative="1" as="geometry">
                        <mxPoint x="1520" y="1320.57" as="sourcePoint"/>
                        <mxPoint x="1520" y="1040" as="targetPoint"/>
                    </mxGeometry>
                </mxCell>
                <mxCell id="505" value="4" style="rounded=0;whiteSpace=wrap;html=1;fillColor=#f5f5f5;strokeColor=#666666;fontColor=#333333;" parent="1" vertex="1">
                    <mxGeometry x="1760" y="1200" width="80" height="60" as="geometry"/>
                </mxCell>
                <mxCell id="506" value="1" style="rounded=0;whiteSpace=wrap;html=1;fillColor=#f5f5f5;strokeColor=#666666;fontColor=#333333;" parent="1" vertex="1">
                    <mxGeometry x="1560" y="1260" width="80" height="60" as="geometry"/>
                </mxCell>
                <mxCell id="507" value="" style="endArrow=none;html=1;strokeWidth=1;" parent="1" edge="1">
                    <mxGeometry width="50" height="50" relative="1" as="geometry">
                        <mxPoint x="1560" y="1320.0000000000002" as="sourcePoint"/>
                        <mxPoint x="1560" y="1040" as="targetPoint"/>
                    </mxGeometry>
                </mxCell>
                <mxCell id="508" value="" style="endArrow=none;html=1;strokeWidth=1;" parent="1" edge="1">
                    <mxGeometry width="50" height="50" relative="1" as="geometry">
                        <mxPoint x="1560" y="1320.0000000000002" as="sourcePoint"/>
                        <mxPoint x="1720" y="1320.0000000000002" as="targetPoint"/>
                    </mxGeometry>
                </mxCell>
                <mxCell id="509" value="" style="endArrow=none;html=1;strokeWidth=1;" parent="1" edge="1">
                    <mxGeometry width="50" height="50" relative="1" as="geometry">
                        <mxPoint x="1720" y="1320.0000000000002" as="sourcePoint"/>
                        <mxPoint x="1720" y="1040" as="targetPoint"/>
                    </mxGeometry>
                </mxCell>
                <mxCell id="510" value="2" style="rounded=0;whiteSpace=wrap;html=1;fillColor=#f5f5f5;strokeColor=#666666;fontColor=#333333;" parent="1" vertex="1">
                    <mxGeometry x="1760" y="1280" width="40" height="40" as="geometry"/>
                </mxCell>
                <mxCell id="511" value="1" style="rounded=0;whiteSpace=wrap;html=1;fillColor=#f5f5f5;strokeColor=#666666;fontColor=#333333;" parent="1" vertex="1">
                    <mxGeometry x="1360" y="1280" width="40" height="40" as="geometry"/>
                </mxCell>
                <mxCell id="512" value="5" style="rounded=0;whiteSpace=wrap;html=1;fillColor=#f5f5f5;strokeColor=#666666;fontColor=#333333;" parent="1" vertex="1">
                    <mxGeometry x="1480" y="1280" width="40" height="40" as="geometry"/>
                </mxCell>
                <mxCell id="513" value="3" style="rounded=0;whiteSpace=wrap;html=1;fillColor=#f5f5f5;strokeColor=#666666;fontColor=#333333;" parent="1" vertex="1">
                    <mxGeometry x="1640" y="1260" width="80" height="60" as="geometry"/>
                </mxCell>
                <mxCell id="514" value="4" style="rounded=0;whiteSpace=wrap;html=1;fillColor=#f5f5f5;strokeColor=#666666;fontColor=#333333;" parent="1" vertex="1">
                    <mxGeometry x="1440" y="1280" width="40" height="40" as="geometry"/>
                </mxCell>
                <mxCell id="515" value="3" style="rounded=0;whiteSpace=wrap;html=1;fillColor=#f5f5f5;strokeColor=#666666;fontColor=#333333;" parent="1" vertex="1">
                    <mxGeometry x="1400" y="1280" width="40" height="40" as="geometry"/>
                </mxCell>
                <mxCell id="516" value="2" style="rounded=0;whiteSpace=wrap;html=1;fillColor=#f5f5f5;strokeColor=#666666;fontColor=#333333;" parent="1" vertex="1">
                    <mxGeometry x="1800" y="1260" width="80" height="60" as="geometry"/>
                </mxCell>
                <mxCell id="517" value="5" style="rounded=0;whiteSpace=wrap;html=1;fillColor=#f5f5f5;strokeColor=#666666;fontColor=#333333;" parent="1" vertex="1">
                    <mxGeometry x="1560" y="1200" width="80" height="60" as="geometry"/>
                </mxCell>
                <mxCell id="518" value="u: 6 + 2 * 2 = 10&lt;br&gt;t: 4" style="text;html=1;align=left;verticalAlign=middle;resizable=0;points=[];autosize=1;strokeColor=none;fillColor=none;" parent="1" vertex="1">
                    <mxGeometry x="1400" y="1330" width="100" height="30" as="geometry"/>
                </mxCell>
                <mxCell id="519" value="u: 2 + 4 * 2 = 10&lt;br&gt;t: 4" style="text;html=1;align=left;verticalAlign=middle;resizable=0;points=[];autosize=1;strokeColor=none;fillColor=none;" parent="1" vertex="1">
                    <mxGeometry x="1600" y="1330" width="100" height="30" as="geometry"/>
                </mxCell>
                <mxCell id="520" value="9" style="rounded=0;whiteSpace=wrap;html=1;fillColor=#f5f5f5;strokeColor=#666666;fontColor=#333333;" parent="1" vertex="1">
                    <mxGeometry x="1640" y="1160" width="80" height="60" as="geometry"/>
                </mxCell>
                <mxCell id="521" value="6" style="rounded=0;whiteSpace=wrap;html=1;fillColor=#f5f5f5;strokeColor=#666666;fontColor=#333333;" parent="1" vertex="1">
                    <mxGeometry x="1840" y="1200" width="80" height="60" as="geometry"/>
                </mxCell>
                <mxCell id="522" value="8" style="rounded=0;whiteSpace=wrap;html=1;fillColor=#f5f5f5;strokeColor=#666666;fontColor=#333333;" parent="1" vertex="1">
                    <mxGeometry x="1760" y="1140" width="80" height="60" as="geometry"/>
                </mxCell>
                <mxCell id="523" value="7" style="rounded=0;whiteSpace=wrap;html=1;fillColor=#f5f5f5;strokeColor=#666666;fontColor=#333333;" parent="1" vertex="1">
                    <mxGeometry x="1400" y="1220" width="80" height="60" as="geometry"/>
                </mxCell>
                <mxCell id="524" value="10" style="rounded=0;whiteSpace=wrap;html=1;fillColor=#f5f5f5;strokeColor=#666666;fontColor=#333333;" parent="1" vertex="1">
                    <mxGeometry x="1360" y="1160" width="80" height="60" as="geometry"/>
                </mxCell>
                <mxCell id="525" value="6" style="rounded=0;whiteSpace=wrap;html=1;fillColor=#f5f5f5;strokeColor=#666666;fontColor=#333333;" parent="1" vertex="1">
                    <mxGeometry x="1360" y="1240" width="40" height="40" as="geometry"/>
                </mxCell>
                <mxCell id="526" value="7" style="rounded=0;whiteSpace=wrap;html=1;fillColor=#f5f5f5;strokeColor=#666666;fontColor=#333333;" parent="1" vertex="1">
                    <mxGeometry x="1640" y="1220" width="40" height="40" as="geometry"/>
                </mxCell>
                <mxCell id="527" value="8" style="rounded=0;whiteSpace=wrap;html=1;fillColor=#f5f5f5;strokeColor=#666666;fontColor=#333333;" parent="1" vertex="1">
                    <mxGeometry x="1680" y="1220" width="40" height="40" as="geometry"/>
                </mxCell>
                <mxCell id="528" value="9" style="rounded=0;whiteSpace=wrap;html=1;fillColor=#f5f5f5;strokeColor=#666666;fontColor=#333333;" parent="1" vertex="1">
                    <mxGeometry x="1480" y="1240" width="40" height="40" as="geometry"/>
                </mxCell>
                <mxCell id="529" value="10" style="rounded=0;whiteSpace=wrap;html=1;fillColor=#f5f5f5;strokeColor=#666666;fontColor=#333333;" parent="1" vertex="1">
                    <mxGeometry x="1840" y="1160" width="40" height="40" as="geometry"/>
                </mxCell>
                <mxCell id="530" value="&amp;nbsp;type-1 和 type-2 交替分配" style="text;html=1;align=center;verticalAlign=middle;resizable=0;points=[];autosize=1;strokeColor=none;fillColor=none;" parent="1" vertex="1">
                    <mxGeometry x="1560" y="1375" width="160" height="20" as="geometry"/>
                </mxCell>
                <mxCell id="532" value="" style="endArrow=none;html=1;strokeWidth=1;" parent="1" edge="1">
                    <mxGeometry width="50" height="50" relative="1" as="geometry">
                        <mxPoint x="1760" y="1320.0000000000002" as="sourcePoint"/>
                        <mxPoint x="1760" y="1040" as="targetPoint"/>
                    </mxGeometry>
                </mxCell>
                <mxCell id="533" value="" style="endArrow=none;html=1;strokeWidth=1;" parent="1" edge="1">
                    <mxGeometry width="50" height="50" relative="1" as="geometry">
                        <mxPoint x="1760" y="1320.0000000000002" as="sourcePoint"/>
                        <mxPoint x="1920" y="1320.0000000000002" as="targetPoint"/>
                    </mxGeometry>
                </mxCell>
                <mxCell id="534" value="" style="endArrow=none;html=1;strokeWidth=1;" parent="1" edge="1">
                    <mxGeometry width="50" height="50" relative="1" as="geometry">
                        <mxPoint x="1920" y="1320.0000000000002" as="sourcePoint"/>
                        <mxPoint x="1920" y="1040" as="targetPoint"/>
                    </mxGeometry>
                </mxCell>
                <mxCell id="539" value="u: 2 + 4 * 2 = 10&lt;br&gt;t: 4.5" style="text;html=1;align=left;verticalAlign=middle;resizable=0;points=[];autosize=1;strokeColor=none;fillColor=none;" parent="1" vertex="1">
                    <mxGeometry x="1800" y="1330" width="100" height="30" as="geometry"/>
                </mxCell>
                <mxCell id="550" value="1" style="rounded=0;whiteSpace=wrap;html=1;fillColor=#fff2cc;strokeColor=#d6b656;" parent="1" vertex="1">
                    <mxGeometry x="2360" y="1260" width="80" height="60" as="geometry"/>
                </mxCell>
                <mxCell id="554" value="u: 5 * 2 + 5 * 3 + 2 * 4 = 33&lt;br&gt;t: 10.5" style="text;html=1;align=left;verticalAlign=middle;resizable=0;points=[];autosize=1;strokeColor=none;fillColor=none;" parent="1" vertex="1">
                    <mxGeometry x="2080" y="1330" width="160" height="30" as="geometry"/>
                </mxCell>
                <mxCell id="564" value="u: 5 * 2 +&amp;nbsp; 5 * 3 + 3 * 4= 37&lt;br&gt;t: 10.5" style="text;html=1;align=left;verticalAlign=middle;resizable=0;points=[];autosize=1;strokeColor=none;fillColor=none;" parent="1" vertex="1">
                    <mxGeometry x="2440" y="1330" width="160" height="30" as="geometry"/>
                </mxCell>
                <mxCell id="584" value="4" style="rounded=0;whiteSpace=wrap;html=1;fillColor=#fff2cc;strokeColor=#d6b656;" parent="1" vertex="1">
                    <mxGeometry x="2440" y="1260" width="80" height="60" as="geometry"/>
                </mxCell>
                <mxCell id="585" value="1" style="rounded=0;whiteSpace=wrap;html=1;fillColor=#f8cecc;strokeColor=#b85450;" parent="1" vertex="1">
                    <mxGeometry x="2120" y="1000" width="160" height="100" as="geometry"/>
                </mxCell>
                <mxCell id="586" value="2" style="rounded=0;whiteSpace=wrap;html=1;fillColor=#f8cecc;strokeColor=#b85450;" parent="1" vertex="1">
                    <mxGeometry x="2480" y="1000" width="160" height="100" as="geometry"/>
                </mxCell>
                <mxCell id="587" value="3" style="rounded=0;whiteSpace=wrap;html=1;fillColor=#ffe6cc;strokeColor=#d79b00;" parent="1" vertex="1">
                    <mxGeometry x="2200" y="1180" width="120" height="80" as="geometry"/>
                </mxCell>
                <mxCell id="588" value="4" style="rounded=0;whiteSpace=wrap;html=1;fillColor=#f8cecc;strokeColor=#b85450;" parent="1" vertex="1">
                    <mxGeometry x="2360" y="900" width="160" height="100" as="geometry"/>
                </mxCell>
                <mxCell id="590" value="5" style="rounded=0;whiteSpace=wrap;html=1;fillColor=#ffe6cc;strokeColor=#d79b00;" parent="1" vertex="1">
                    <mxGeometry x="2000" y="1100" width="120" height="80" as="geometry"/>
                </mxCell>
                <mxCell id="591" value="6" style="rounded=0;whiteSpace=wrap;html=1;fillColor=#fff2cc;strokeColor=#d6b656;" parent="1" vertex="1">
                    <mxGeometry x="2160" y="1260" width="80" height="60" as="geometry"/>
                </mxCell>
                <mxCell id="592" value="7" style="rounded=0;whiteSpace=wrap;html=1;fillColor=#fff2cc;strokeColor=#d6b656;" parent="1" vertex="1">
                    <mxGeometry x="2240" y="1260" width="80" height="60" as="geometry"/>
                </mxCell>
                <mxCell id="593" value="7" style="rounded=0;whiteSpace=wrap;html=1;fillColor=#ffe6cc;strokeColor=#d79b00;" parent="1" vertex="1">
                    <mxGeometry x="2480" y="1100" width="120" height="80" as="geometry"/>
                </mxCell>
                <mxCell id="594" value="9" style="rounded=0;whiteSpace=wrap;html=1;fillColor=#fff2cc;strokeColor=#d6b656;" parent="1" vertex="1">
                    <mxGeometry x="2000" y="1200" width="80" height="60" as="geometry"/>
                </mxCell>
                <mxCell id="595" value="9" style="rounded=0;whiteSpace=wrap;html=1;fillColor=#ffe6cc;strokeColor=#d79b00;" parent="1" vertex="1">
                    <mxGeometry x="2360" y="1020" width="120" height="80" as="geometry"/>
                </mxCell>
                <mxCell id="596" value="1" style="rounded=0;whiteSpace=wrap;html=1;fillColor=#ffe6cc;strokeColor=#d79b00;" parent="1" vertex="1">
                    <mxGeometry x="2440" y="1180" width="120" height="80" as="geometry"/>
                </mxCell>
                <mxCell id="597" value="2" style="rounded=0;whiteSpace=wrap;html=1;fillColor=#fff2cc;strokeColor=#d6b656;" parent="1" vertex="1">
                    <mxGeometry x="2000" y="1260" width="80" height="60" as="geometry"/>
                </mxCell>
                <mxCell id="598" value="2" style="rounded=0;whiteSpace=wrap;html=1;fillColor=#ffe6cc;strokeColor=#d79b00;" parent="1" vertex="1">
                    <mxGeometry x="2080" y="1180" width="120" height="80" as="geometry"/>
                </mxCell>
                <mxCell id="599" value="3" style="rounded=0;whiteSpace=wrap;html=1;fillColor=#fff2cc;strokeColor=#d6b656;" parent="1" vertex="1">
                    <mxGeometry x="2080" y="1260" width="80" height="60" as="geometry"/>
                </mxCell>
                <mxCell id="600" value="3" style="rounded=0;whiteSpace=wrap;html=1;fillColor=#f8cecc;strokeColor=#b85450;" parent="1" vertex="1">
                    <mxGeometry x="2000" y="900" width="160" height="100" as="geometry"/>
                </mxCell>
                <mxCell id="601" value="4" style="rounded=0;whiteSpace=wrap;html=1;fillColor=#ffe6cc;strokeColor=#d79b00;" parent="1" vertex="1">
                    <mxGeometry x="2560" y="1180" width="120" height="80" as="geometry"/>
                </mxCell>
                <mxCell id="602" value="5" style="rounded=0;whiteSpace=wrap;html=1;fillColor=#fff2cc;strokeColor=#d6b656;" parent="1" vertex="1">
                    <mxGeometry x="2520" y="1260" width="80" height="60" as="geometry"/>
                </mxCell>
                <mxCell id="603" value="5" style="rounded=0;whiteSpace=wrap;html=1;fillColor=#f8cecc;strokeColor=#b85450;" parent="1" vertex="1">
                    <mxGeometry x="2520" y="900" width="160" height="100" as="geometry"/>
                </mxCell>
                <mxCell id="604" value="6" style="rounded=0;whiteSpace=wrap;html=1;fillColor=#ffe6cc;strokeColor=#d79b00;" parent="1" vertex="1">
                    <mxGeometry x="2360" y="1100" width="120" height="80" as="geometry"/>
                </mxCell>
                <mxCell id="605" value="8" style="rounded=0;whiteSpace=wrap;html=1;fillColor=#fff2cc;strokeColor=#d6b656;" parent="1" vertex="1">
                    <mxGeometry x="2600" y="1260" width="80" height="60" as="geometry"/>
                </mxCell>
                <mxCell id="606" value="8" style="rounded=0;whiteSpace=wrap;html=1;fillColor=#ffe6cc;strokeColor=#d79b00;" parent="1" vertex="1">
                    <mxGeometry x="2120" y="1100" width="120" height="80" as="geometry"/>
                </mxCell>
                <mxCell id="607" value="10" style="rounded=0;whiteSpace=wrap;html=1;fillColor=#fff2cc;strokeColor=#d6b656;" parent="1" vertex="1">
                    <mxGeometry x="2360" y="1200" width="80" height="60" as="geometry"/>
                </mxCell>
                <mxCell id="608" value="10" style="rounded=0;whiteSpace=wrap;html=1;fillColor=#ffe6cc;strokeColor=#d79b00;" parent="1" vertex="1">
                    <mxGeometry x="2000" y="1020" width="120" height="80" as="geometry"/>
                </mxCell>
                <mxCell id="563" value="" style="endArrow=none;html=1;strokeWidth=1;" parent="1" edge="1">
                    <mxGeometry width="50" height="50" relative="1" as="geometry">
                        <mxPoint x="2680" y="1320.0000000000002" as="sourcePoint"/>
                        <mxPoint x="2680" y="840" as="targetPoint"/>
                    </mxGeometry>
                </mxCell>
                <mxCell id="561" value="" style="endArrow=none;html=1;strokeWidth=1;" parent="1" edge="1">
                    <mxGeometry width="50" height="50" relative="1" as="geometry">
                        <mxPoint x="2360" y="1320.0000000000002" as="sourcePoint"/>
                        <mxPoint x="2360" y="840" as="targetPoint"/>
                    </mxGeometry>
                </mxCell>
                <mxCell id="549" value="" style="endArrow=none;html=1;strokeWidth=1;" parent="1" edge="1">
                    <mxGeometry width="50" height="50" relative="1" as="geometry">
                        <mxPoint x="2320" y="1320.0000000000002" as="sourcePoint"/>
                        <mxPoint x="2320" y="840" as="targetPoint"/>
                    </mxGeometry>
                </mxCell>
                <mxCell id="548" value="" style="endArrow=none;html=1;strokeWidth=1;" parent="1" edge="1">
                    <mxGeometry width="50" height="50" relative="1" as="geometry">
                        <mxPoint x="2000" y="1320.0000000000002" as="sourcePoint"/>
                        <mxPoint x="2320" y="1320" as="targetPoint"/>
                    </mxGeometry>
                </mxCell>
                <mxCell id="547" value="" style="endArrow=none;html=1;strokeWidth=1;" parent="1" edge="1">
                    <mxGeometry width="50" height="50" relative="1" as="geometry">
                        <mxPoint x="2000" y="1320.0000000000002" as="sourcePoint"/>
                        <mxPoint x="2000" y="840" as="targetPoint"/>
                    </mxGeometry>
                </mxCell>
                <mxCell id="562" value="" style="endArrow=none;html=1;strokeWidth=1;" parent="1" edge="1">
                    <mxGeometry width="50" height="50" relative="1" as="geometry">
                        <mxPoint x="2360" y="1320.0000000000002" as="sourcePoint"/>
                        <mxPoint x="2680" y="1320" as="targetPoint"/>
                    </mxGeometry>
                </mxCell>
                <mxCell id="609" value="" style="endArrow=none;html=1;strokeWidth=2;dashed=1;" edge="1" parent="1">
                    <mxGeometry width="50" height="50" relative="1" as="geometry">
                        <mxPoint x="1958.5" y="900.0000000000002" as="sourcePoint"/>
                        <mxPoint x="2718.5" y="900" as="targetPoint"/>
                    </mxGeometry>
                </mxCell>
                <mxCell id="610" value="1" style="rounded=0;whiteSpace=wrap;html=1;fillColor=#fff2cc;strokeColor=#d6b656;" vertex="1" parent="1">
                    <mxGeometry x="3160" y="1260" width="80" height="60" as="geometry"/>
                </mxCell>
                <mxCell id="611" value="u: 4 * 2 + 6 * 3 + 2 * 4 = 34&lt;br&gt;t: 11" style="text;html=1;align=left;verticalAlign=middle;resizable=0;points=[];autosize=1;strokeColor=none;fillColor=none;" vertex="1" parent="1">
                    <mxGeometry x="2880" y="1330" width="160" height="30" as="geometry"/>
                </mxCell>
                <mxCell id="612" value="u: 6 * 2 +&amp;nbsp; 4 * 3 + 3 * 4= 36&lt;br&gt;t: 12" style="text;html=1;align=left;verticalAlign=middle;resizable=0;points=[];autosize=1;strokeColor=none;fillColor=none;" vertex="1" parent="1">
                    <mxGeometry x="3240" y="1330" width="160" height="30" as="geometry"/>
                </mxCell>
                <mxCell id="613" value="4" style="rounded=0;whiteSpace=wrap;html=1;fillColor=#fff2cc;strokeColor=#d6b656;" vertex="1" parent="1">
                    <mxGeometry x="3320" y="1080" width="80" height="60" as="geometry"/>
                </mxCell>
                <mxCell id="614" value="1" style="rounded=0;whiteSpace=wrap;html=1;fillColor=#f8cecc;strokeColor=#b85450;" vertex="1" parent="1">
                    <mxGeometry x="3240" y="1220" width="160" height="100" as="geometry"/>
                </mxCell>
                <mxCell id="615" value="2" style="rounded=0;whiteSpace=wrap;html=1;fillColor=#f8cecc;strokeColor=#b85450;" vertex="1" parent="1">
                    <mxGeometry x="3160" y="1120" width="160" height="100" as="geometry"/>
                </mxCell>
                <mxCell id="616" value="3" style="rounded=0;whiteSpace=wrap;html=1;fillColor=#ffe6cc;strokeColor=#d79b00;" vertex="1" parent="1">
                    <mxGeometry x="3320" y="1140" width="120" height="80" as="geometry"/>
                </mxCell>
                <mxCell id="617" value="4" style="rounded=0;whiteSpace=wrap;html=1;fillColor=#f8cecc;strokeColor=#b85450;" vertex="1" parent="1">
                    <mxGeometry x="3160" y="1020" width="160" height="100" as="geometry"/>
                </mxCell>
                <mxCell id="618" value="5" style="rounded=0;whiteSpace=wrap;html=1;fillColor=#ffe6cc;strokeColor=#d79b00;" vertex="1" parent="1">
                    <mxGeometry x="3320" y="1000" width="120" height="80" as="geometry"/>
                </mxCell>
                <mxCell id="619" value="6" style="rounded=0;whiteSpace=wrap;html=1;fillColor=#fff2cc;strokeColor=#d6b656;" vertex="1" parent="1">
                    <mxGeometry x="3160" y="960" width="80" height="60" as="geometry"/>
                </mxCell>
                <mxCell id="620" value="7" style="rounded=0;whiteSpace=wrap;html=1;fillColor=#fff2cc;strokeColor=#d6b656;" vertex="1" parent="1">
                    <mxGeometry x="3240" y="960" width="80" height="60" as="geometry"/>
                </mxCell>
                <mxCell id="621" value="7" style="rounded=0;whiteSpace=wrap;html=1;fillColor=#ffe6cc;strokeColor=#d79b00;" vertex="1" parent="1">
                    <mxGeometry x="3320" y="920" width="120" height="80" as="geometry"/>
                </mxCell>
                <mxCell id="622" value="9" style="rounded=0;whiteSpace=wrap;html=1;fillColor=#fff2cc;strokeColor=#d6b656;" vertex="1" parent="1">
                    <mxGeometry x="3160" y="900" width="80" height="60" as="geometry"/>
                </mxCell>
                <mxCell id="623" value="9" style="rounded=0;whiteSpace=wrap;html=1;fillColor=#ffe6cc;strokeColor=#d79b00;" vertex="1" parent="1">
                    <mxGeometry x="2920" y="880" width="120" height="80" as="geometry"/>
                </mxCell>
                <mxCell id="624" value="1" style="rounded=0;whiteSpace=wrap;html=1;fillColor=#ffe6cc;strokeColor=#d79b00;" vertex="1" parent="1">
                    <mxGeometry x="2800" y="1240" width="120" height="80" as="geometry"/>
                </mxCell>
                <mxCell id="625" value="2" style="rounded=0;whiteSpace=wrap;html=1;fillColor=#fff2cc;strokeColor=#d6b656;" vertex="1" parent="1">
                    <mxGeometry x="2920" y="1260" width="80" height="60" as="geometry"/>
                </mxCell>
                <mxCell id="626" value="2" style="rounded=0;whiteSpace=wrap;html=1;fillColor=#ffe6cc;strokeColor=#d79b00;" vertex="1" parent="1">
                    <mxGeometry x="3000" y="1240" width="120" height="80" as="geometry"/>
                </mxCell>
                <mxCell id="627" value="3" style="rounded=0;whiteSpace=wrap;html=1;fillColor=#fff2cc;strokeColor=#d6b656;" vertex="1" parent="1">
                    <mxGeometry x="2920" y="1200" width="80" height="60" as="geometry"/>
                </mxCell>
                <mxCell id="628" value="3" style="rounded=0;whiteSpace=wrap;html=1;fillColor=#f8cecc;strokeColor=#b85450;" vertex="1" parent="1">
                    <mxGeometry x="2800" y="1100" width="160" height="100" as="geometry"/>
                </mxCell>
                <mxCell id="629" value="4" style="rounded=0;whiteSpace=wrap;html=1;fillColor=#ffe6cc;strokeColor=#d79b00;" vertex="1" parent="1">
                    <mxGeometry x="3000" y="1160" width="120" height="80" as="geometry"/>
                </mxCell>
                <mxCell id="630" value="5" style="rounded=0;whiteSpace=wrap;html=1;fillColor=#fff2cc;strokeColor=#d6b656;" vertex="1" parent="1">
                    <mxGeometry x="2960" y="1100" width="80" height="60" as="geometry"/>
                </mxCell>
                <mxCell id="631" value="5" style="rounded=0;whiteSpace=wrap;html=1;fillColor=#f8cecc;strokeColor=#b85450;" vertex="1" parent="1">
                    <mxGeometry x="2800" y="1000" width="160" height="100" as="geometry"/>
                </mxCell>
                <mxCell id="632" value="6" style="rounded=0;whiteSpace=wrap;html=1;fillColor=#ffe6cc;strokeColor=#d79b00;" vertex="1" parent="1">
                    <mxGeometry x="2960" y="1020" width="120" height="80" as="geometry"/>
                </mxCell>
                <mxCell id="633" value="8" style="rounded=0;whiteSpace=wrap;html=1;fillColor=#fff2cc;strokeColor=#d6b656;" vertex="1" parent="1">
                    <mxGeometry x="2960" y="960" width="80" height="60" as="geometry"/>
                </mxCell>
                <mxCell id="634" value="8" style="rounded=0;whiteSpace=wrap;html=1;fillColor=#ffe6cc;strokeColor=#d79b00;" vertex="1" parent="1">
                    <mxGeometry x="2800" y="920" width="120" height="80" as="geometry"/>
                </mxCell>
                <mxCell id="635" value="10" style="rounded=0;whiteSpace=wrap;html=1;fillColor=#fff2cc;strokeColor=#d6b656;" vertex="1" parent="1">
                    <mxGeometry x="3240" y="900" width="80" height="60" as="geometry"/>
                </mxCell>
                <mxCell id="636" value="10" style="rounded=0;whiteSpace=wrap;html=1;fillColor=#ffe6cc;strokeColor=#d79b00;" vertex="1" parent="1">
                    <mxGeometry x="3320" y="840" width="120" height="80" as="geometry"/>
                </mxCell>
                <mxCell id="637" value="" style="endArrow=none;html=1;strokeWidth=1;" edge="1" parent="1">
                    <mxGeometry width="50" height="50" relative="1" as="geometry">
                        <mxPoint x="3480" y="1320.0000000000002" as="sourcePoint"/>
                        <mxPoint x="3480" y="800" as="targetPoint"/>
                    </mxGeometry>
                </mxCell>
                <mxCell id="638" value="" style="endArrow=none;html=1;strokeWidth=1;" edge="1" parent="1">
                    <mxGeometry width="50" height="50" relative="1" as="geometry">
                        <mxPoint x="3160" y="1320.0000000000002" as="sourcePoint"/>
                        <mxPoint x="3160" y="800" as="targetPoint"/>
                    </mxGeometry>
                </mxCell>
                <mxCell id="639" value="" style="endArrow=none;html=1;strokeWidth=1;" edge="1" parent="1">
                    <mxGeometry width="50" height="50" relative="1" as="geometry">
                        <mxPoint x="3120" y="1320.0000000000002" as="sourcePoint"/>
                        <mxPoint x="3120" y="800" as="targetPoint"/>
                    </mxGeometry>
                </mxCell>
                <mxCell id="640" value="" style="endArrow=none;html=1;strokeWidth=1;" edge="1" parent="1">
                    <mxGeometry width="50" height="50" relative="1" as="geometry">
                        <mxPoint x="2800" y="1320.0000000000002" as="sourcePoint"/>
                        <mxPoint x="3120" y="1320" as="targetPoint"/>
                    </mxGeometry>
                </mxCell>
                <mxCell id="641" value="" style="endArrow=none;html=1;strokeWidth=1;" edge="1" parent="1">
                    <mxGeometry width="50" height="50" relative="1" as="geometry">
                        <mxPoint x="2800" y="1320.0000000000002" as="sourcePoint"/>
                        <mxPoint x="2800" y="800" as="targetPoint"/>
                    </mxGeometry>
                </mxCell>
                <mxCell id="642" value="" style="endArrow=none;html=1;strokeWidth=1;" edge="1" parent="1">
                    <mxGeometry width="50" height="50" relative="1" as="geometry">
                        <mxPoint x="3160" y="1320.0000000000002" as="sourcePoint"/>
                        <mxPoint x="3480" y="1320" as="targetPoint"/>
                    </mxGeometry>
                </mxCell>
                <mxCell id="643" value="" style="endArrow=none;html=1;strokeWidth=2;dashed=1;" edge="1" parent="1">
                    <mxGeometry width="50" height="50" relative="1" as="geometry">
                        <mxPoint x="2764" y="840.0000000000003" as="sourcePoint"/>
                        <mxPoint x="3524" y="840.0000000000001" as="targetPoint"/>
                    </mxGeometry>
                </mxCell>
                <mxCell id="645" value="1" style="rounded=0;whiteSpace=wrap;html=1;fillColor=#fff2cc;strokeColor=#d6b656;" vertex="1" parent="1">
                    <mxGeometry x="3840" y="1260" width="80" height="60" as="geometry"/>
                </mxCell>
                <mxCell id="646" value="u: 3 * 2 + 3 * 3 + 2 * 4 = 23&lt;br&gt;t: 14" style="text;html=1;align=left;verticalAlign=middle;resizable=0;points=[];autosize=1;strokeColor=none;fillColor=none;" vertex="1" parent="1">
                    <mxGeometry x="3600" y="1330" width="160" height="30" as="geometry"/>
                </mxCell>
                <mxCell id="647" value="u: 7 * 2 + 7 * 3 + 3 * 4 = 47&lt;br&gt;t: 14" style="text;html=1;align=left;verticalAlign=middle;resizable=0;points=[];autosize=1;strokeColor=none;fillColor=none;" vertex="1" parent="1">
                    <mxGeometry x="3920" y="1330" width="160" height="30" as="geometry"/>
                </mxCell>
                <mxCell id="648" value="4" style="rounded=0;whiteSpace=wrap;html=1;fillColor=#fff2cc;strokeColor=#d6b656;" vertex="1" parent="1">
                    <mxGeometry x="3600" y="1260" width="80" height="60" as="geometry"/>
                </mxCell>
                <mxCell id="649" value="1" style="rounded=0;whiteSpace=wrap;html=1;fillColor=#f8cecc;strokeColor=#b85450;" vertex="1" parent="1">
                    <mxGeometry x="3960" y="860" width="160" height="100" as="geometry"/>
                </mxCell>
                <mxCell id="650" value="2" style="rounded=0;whiteSpace=wrap;html=1;fillColor=#f8cecc;strokeColor=#b85450;" vertex="1" parent="1">
                    <mxGeometry x="3600" y="860" width="160" height="100" as="geometry"/>
                </mxCell>
                <mxCell id="651" value="3" style="rounded=0;whiteSpace=wrap;html=1;fillColor=#ffe6cc;strokeColor=#d79b00;" vertex="1" parent="1">
                    <mxGeometry x="3600" y="1120" width="120" height="80" as="geometry"/>
                </mxCell>
                <mxCell id="652" value="4" style="rounded=0;whiteSpace=wrap;html=1;fillColor=#f8cecc;strokeColor=#b85450;" vertex="1" parent="1">
                    <mxGeometry x="4000" y="760" width="160" height="100" as="geometry"/>
                </mxCell>
                <mxCell id="653" value="5" style="rounded=0;whiteSpace=wrap;html=1;fillColor=#ffe6cc;strokeColor=#d79b00;" vertex="1" parent="1">
                    <mxGeometry x="3600" y="1040" width="120" height="80" as="geometry"/>
                </mxCell>
                <mxCell id="654" value="6" style="rounded=0;whiteSpace=wrap;html=1;fillColor=#fff2cc;strokeColor=#d6b656;" vertex="1" parent="1">
                    <mxGeometry x="3680" y="1260" width="80" height="60" as="geometry"/>
                </mxCell>
                <mxCell id="655" value="7" style="rounded=0;whiteSpace=wrap;html=1;fillColor=#fff2cc;strokeColor=#d6b656;" vertex="1" parent="1">
                    <mxGeometry x="3840" y="1200" width="80" height="60" as="geometry"/>
                </mxCell>
                <mxCell id="656" value="7" style="rounded=0;whiteSpace=wrap;html=1;fillColor=#ffe6cc;strokeColor=#d79b00;" vertex="1" parent="1">
                    <mxGeometry x="3840" y="960" width="120" height="80" as="geometry"/>
                </mxCell>
                <mxCell id="657" value="9" style="rounded=0;whiteSpace=wrap;html=1;fillColor=#fff2cc;strokeColor=#d6b656;" vertex="1" parent="1">
                    <mxGeometry x="4000" y="1200" width="80" height="60" as="geometry"/>
                </mxCell>
                <mxCell id="658" value="9" style="rounded=0;whiteSpace=wrap;html=1;fillColor=#ffe6cc;strokeColor=#d79b00;" vertex="1" parent="1">
                    <mxGeometry x="3960" y="960" width="120" height="80" as="geometry"/>
                </mxCell>
                <mxCell id="659" value="1" style="rounded=0;whiteSpace=wrap;html=1;fillColor=#ffe6cc;strokeColor=#d79b00;" vertex="1" parent="1">
                    <mxGeometry x="3840" y="1120" width="120" height="80" as="geometry"/>
                </mxCell>
                <mxCell id="660" value="2" style="rounded=0;whiteSpace=wrap;html=1;fillColor=#fff2cc;strokeColor=#d6b656;" vertex="1" parent="1">
                    <mxGeometry x="3920" y="1260" width="80" height="60" as="geometry"/>
                </mxCell>
                <mxCell id="661" value="2" style="rounded=0;whiteSpace=wrap;html=1;fillColor=#ffe6cc;strokeColor=#d79b00;" vertex="1" parent="1">
                    <mxGeometry x="3960" y="1120" width="120" height="80" as="geometry"/>
                </mxCell>
                <mxCell id="662" value="3" style="rounded=0;whiteSpace=wrap;html=1;fillColor=#fff2cc;strokeColor=#d6b656;" vertex="1" parent="1">
                    <mxGeometry x="4000" y="1260" width="80" height="60" as="geometry"/>
                </mxCell>
                <mxCell id="663" value="3" style="rounded=0;whiteSpace=wrap;html=1;fillColor=#f8cecc;strokeColor=#b85450;" vertex="1" parent="1">
                    <mxGeometry x="3840" y="760" width="160" height="100" as="geometry"/>
                </mxCell>
                <mxCell id="664" value="4" style="rounded=0;whiteSpace=wrap;html=1;fillColor=#ffe6cc;strokeColor=#d79b00;" vertex="1" parent="1">
                    <mxGeometry x="3840" y="1040" width="120" height="80" as="geometry"/>
                </mxCell>
                <mxCell id="665" value="5" style="rounded=0;whiteSpace=wrap;html=1;fillColor=#fff2cc;strokeColor=#d6b656;" vertex="1" parent="1">
                    <mxGeometry x="4080" y="1260" width="80" height="60" as="geometry"/>
                </mxCell>
                <mxCell id="666" value="5" style="rounded=0;whiteSpace=wrap;html=1;fillColor=#f8cecc;strokeColor=#b85450;" vertex="1" parent="1">
                    <mxGeometry x="3600" y="760" width="160" height="100" as="geometry"/>
                </mxCell>
                <mxCell id="667" value="6" style="rounded=0;whiteSpace=wrap;html=1;fillColor=#ffe6cc;strokeColor=#d79b00;" vertex="1" parent="1">
                    <mxGeometry x="3960" y="1040" width="120" height="80" as="geometry"/>
                </mxCell>
                <mxCell id="668" value="8" style="rounded=0;whiteSpace=wrap;html=1;fillColor=#fff2cc;strokeColor=#d6b656;" vertex="1" parent="1">
                    <mxGeometry x="3920" y="1200" width="80" height="60" as="geometry"/>
                </mxCell>
                <mxCell id="669" value="8" style="rounded=0;whiteSpace=wrap;html=1;fillColor=#ffe6cc;strokeColor=#d79b00;" vertex="1" parent="1">
                    <mxGeometry x="3600" y="960" width="120" height="80" as="geometry"/>
                </mxCell>
                <mxCell id="670" value="10" style="rounded=0;whiteSpace=wrap;html=1;fillColor=#fff2cc;strokeColor=#d6b656;" vertex="1" parent="1">
                    <mxGeometry x="3600" y="1200" width="80" height="60" as="geometry"/>
                </mxCell>
                <mxCell id="671" value="10" style="rounded=0;whiteSpace=wrap;html=1;fillColor=#ffe6cc;strokeColor=#d79b00;" vertex="1" parent="1">
                    <mxGeometry x="3840" y="880" width="120" height="80" as="geometry"/>
                </mxCell>
                <mxCell id="672" value="" style="endArrow=none;html=1;strokeWidth=1;" edge="1" parent="1">
                    <mxGeometry width="50" height="50" relative="1" as="geometry">
                        <mxPoint x="4160" y="1320.0000000000002" as="sourcePoint"/>
                        <mxPoint x="4160" y="720" as="targetPoint"/>
                    </mxGeometry>
                </mxCell>
                <mxCell id="673" value="" style="endArrow=none;html=1;strokeWidth=1;" edge="1" parent="1">
                    <mxGeometry width="50" height="50" relative="1" as="geometry">
                        <mxPoint x="3840" y="1320.0000000000002" as="sourcePoint"/>
                        <mxPoint x="3840" y="720" as="targetPoint"/>
                    </mxGeometry>
                </mxCell>
                <mxCell id="674" value="" style="endArrow=none;html=1;strokeWidth=1;" edge="1" parent="1">
                    <mxGeometry width="50" height="50" relative="1" as="geometry">
                        <mxPoint x="3760" y="1320.0000000000002" as="sourcePoint"/>
                        <mxPoint x="3760" y="720" as="targetPoint"/>
                    </mxGeometry>
                </mxCell>
                <mxCell id="675" value="" style="endArrow=none;html=1;strokeWidth=1;" edge="1" parent="1">
                    <mxGeometry width="50" height="50" relative="1" as="geometry">
                        <mxPoint x="3600" y="1320.0000000000002" as="sourcePoint"/>
                        <mxPoint x="3760" y="1320" as="targetPoint"/>
                    </mxGeometry>
                </mxCell>
                <mxCell id="676" value="" style="endArrow=none;html=1;strokeWidth=1;" edge="1" parent="1">
                    <mxGeometry width="50" height="50" relative="1" as="geometry">
                        <mxPoint x="3600" y="1320.0000000000002" as="sourcePoint"/>
                        <mxPoint x="3600" y="720" as="targetPoint"/>
                    </mxGeometry>
                </mxCell>
                <mxCell id="677" value="" style="endArrow=none;html=1;strokeWidth=1;" edge="1" parent="1">
                    <mxGeometry width="50" height="50" relative="1" as="geometry">
                        <mxPoint x="3840" y="1320.0000000000002" as="sourcePoint"/>
                        <mxPoint x="4160" y="1320" as="targetPoint"/>
                    </mxGeometry>
                </mxCell>
                <mxCell id="678" value="" style="endArrow=none;html=1;strokeWidth=2;dashed=1;" edge="1" parent="1">
                    <mxGeometry width="50" height="50" relative="1" as="geometry">
                        <mxPoint x="3560" y="760.0000000000002" as="sourcePoint"/>
                        <mxPoint x="4200" y="760.1800000000001" as="targetPoint"/>
                    </mxGeometry>
                </mxCell>
                <mxCell id="680" value="1" style="rounded=0;whiteSpace=wrap;html=1;fillColor=#fff2cc;strokeColor=#d6b656;" vertex="1" parent="1">
                    <mxGeometry x="4520" y="1260" width="80" height="60" as="geometry"/>
                </mxCell>
                <mxCell id="681" value="u: 4 * 2 + 4 * 3 + 1 * 4 = 24&lt;br&gt;t: 14.5" style="text;html=1;align=left;verticalAlign=middle;resizable=0;points=[];autosize=1;strokeColor=none;fillColor=none;" vertex="1" parent="1">
                    <mxGeometry x="4280" y="1330" width="160" height="30" as="geometry"/>
                </mxCell>
                <mxCell id="682" value="u: 6 * 2 + 6 * 3 + 4 * 4 = 46&lt;br&gt;t: 13" style="text;html=1;align=left;verticalAlign=middle;resizable=0;points=[];autosize=1;strokeColor=none;fillColor=none;" vertex="1" parent="1">
                    <mxGeometry x="4600" y="1330" width="160" height="30" as="geometry"/>
                </mxCell>
                <mxCell id="683" value="4" style="rounded=0;whiteSpace=wrap;html=1;fillColor=#fff2cc;strokeColor=#d6b656;" vertex="1" parent="1">
                    <mxGeometry x="4360" y="1160" width="80" height="60" as="geometry"/>
                </mxCell>
                <mxCell id="684" value="1" style="rounded=0;whiteSpace=wrap;html=1;fillColor=#f8cecc;strokeColor=#b85450;" vertex="1" parent="1">
                    <mxGeometry x="4280" y="1220" width="160" height="100" as="geometry"/>
                </mxCell>
                <mxCell id="685" value="2" style="rounded=0;whiteSpace=wrap;html=1;fillColor=#f8cecc;strokeColor=#b85450;" vertex="1" parent="1">
                    <mxGeometry x="4640" y="1140" width="160" height="100" as="geometry"/>
                </mxCell>
                <mxCell id="686" value="3" style="rounded=0;whiteSpace=wrap;html=1;fillColor=#ffe6cc;strokeColor=#d79b00;" vertex="1" parent="1">
                    <mxGeometry x="4520" y="1080" width="120" height="80" as="geometry"/>
                </mxCell>
                <mxCell id="687" value="4" style="rounded=0;whiteSpace=wrap;html=1;fillColor=#f8cecc;strokeColor=#b85450;" vertex="1" parent="1">
                    <mxGeometry x="4280" y="1060" width="160" height="100" as="geometry"/>
                </mxCell>
                <mxCell id="688" value="5" style="rounded=0;whiteSpace=wrap;html=1;fillColor=#ffe6cc;strokeColor=#d79b00;" vertex="1" parent="1">
                    <mxGeometry x="4520" y="920" width="120" height="80" as="geometry"/>
                </mxCell>
                <mxCell id="689" value="6" style="rounded=0;whiteSpace=wrap;html=1;fillColor=#fff2cc;strokeColor=#d6b656;" vertex="1" parent="1">
                    <mxGeometry x="4720" y="980" width="80" height="60" as="geometry"/>
                </mxCell>
                <mxCell id="690" value="7" style="rounded=0;whiteSpace=wrap;html=1;fillColor=#fff2cc;strokeColor=#d6b656;" vertex="1" parent="1">
                    <mxGeometry x="4760" y="920" width="80" height="60" as="geometry"/>
                </mxCell>
                <mxCell id="691" value="7" style="rounded=0;whiteSpace=wrap;html=1;fillColor=#ffe6cc;strokeColor=#d79b00;" vertex="1" parent="1">
                    <mxGeometry x="4520" y="840" width="120" height="80" as="geometry"/>
                </mxCell>
                <mxCell id="692" value="9" style="rounded=0;whiteSpace=wrap;html=1;fillColor=#fff2cc;strokeColor=#d6b656;" vertex="1" parent="1">
                    <mxGeometry x="4760" y="860" width="80" height="60" as="geometry"/>
                </mxCell>
                <mxCell id="693" value="9" style="rounded=0;whiteSpace=wrap;html=1;fillColor=#ffe6cc;strokeColor=#d79b00;" vertex="1" parent="1">
                    <mxGeometry x="4280" y="820" width="120" height="80" as="geometry"/>
                </mxCell>
                <mxCell id="694" value="1" style="rounded=0;whiteSpace=wrap;html=1;fillColor=#ffe6cc;strokeColor=#d79b00;" vertex="1" parent="1">
                    <mxGeometry x="4600" y="1240" width="120" height="80" as="geometry"/>
                </mxCell>
                <mxCell id="695" value="2" style="rounded=0;whiteSpace=wrap;html=1;fillColor=#fff2cc;strokeColor=#d6b656;" vertex="1" parent="1">
                    <mxGeometry x="4720" y="1260" width="80" height="60" as="geometry"/>
                </mxCell>
                <mxCell id="696" value="2" style="rounded=0;whiteSpace=wrap;html=1;fillColor=#ffe6cc;strokeColor=#d79b00;" vertex="1" parent="1">
                    <mxGeometry x="4520" y="1160" width="120" height="80" as="geometry"/>
                </mxCell>
                <mxCell id="697" value="3" style="rounded=0;whiteSpace=wrap;html=1;fillColor=#fff2cc;strokeColor=#d6b656;" vertex="1" parent="1">
                    <mxGeometry x="4280" y="1160" width="80" height="60" as="geometry"/>
                </mxCell>
                <mxCell id="698" value="3" style="rounded=0;whiteSpace=wrap;html=1;fillColor=#f8cecc;strokeColor=#b85450;" vertex="1" parent="1">
                    <mxGeometry x="4640" y="1040" width="160" height="100" as="geometry"/>
                </mxCell>
                <mxCell id="699" value="4" style="rounded=0;whiteSpace=wrap;html=1;fillColor=#ffe6cc;strokeColor=#d79b00;" vertex="1" parent="1">
                    <mxGeometry x="4520" y="1000" width="120" height="80" as="geometry"/>
                </mxCell>
                <mxCell id="700" value="5" style="rounded=0;whiteSpace=wrap;html=1;fillColor=#fff2cc;strokeColor=#d6b656;" vertex="1" parent="1">
                    <mxGeometry x="4640" y="980" width="80" height="60" as="geometry"/>
                </mxCell>
                <mxCell id="701" value="5" style="rounded=0;whiteSpace=wrap;html=1;fillColor=#f8cecc;strokeColor=#b85450;" vertex="1" parent="1">
                    <mxGeometry x="4280" y="960" width="160" height="100" as="geometry"/>
                </mxCell>
                <mxCell id="702" value="6" style="rounded=0;whiteSpace=wrap;html=1;fillColor=#ffe6cc;strokeColor=#d79b00;" vertex="1" parent="1">
                    <mxGeometry x="4640" y="900" width="120" height="80" as="geometry"/>
                </mxCell>
                <mxCell id="703" value="8" style="rounded=0;whiteSpace=wrap;html=1;fillColor=#fff2cc;strokeColor=#d6b656;" vertex="1" parent="1">
                    <mxGeometry x="4280" y="900" width="80" height="60" as="geometry"/>
                </mxCell>
                <mxCell id="704" value="8" style="rounded=0;whiteSpace=wrap;html=1;fillColor=#ffe6cc;strokeColor=#d79b00;" vertex="1" parent="1">
                    <mxGeometry x="4640" y="820" width="120" height="80" as="geometry"/>
                </mxCell>
                <mxCell id="705" value="10" style="rounded=0;whiteSpace=wrap;html=1;fillColor=#fff2cc;strokeColor=#d6b656;" vertex="1" parent="1">
                    <mxGeometry x="4760" y="800" width="80" height="60" as="geometry"/>
                </mxCell>
                <mxCell id="706" value="10" style="rounded=0;whiteSpace=wrap;html=1;fillColor=#ffe6cc;strokeColor=#d79b00;" vertex="1" parent="1">
                    <mxGeometry x="4280" y="740" width="120" height="80" as="geometry"/>
                </mxCell>
                <mxCell id="707" value="" style="endArrow=none;html=1;strokeWidth=1;" edge="1" parent="1">
                    <mxGeometry width="50" height="50" relative="1" as="geometry">
                        <mxPoint x="4840" y="1320" as="sourcePoint"/>
                        <mxPoint x="4840" y="720" as="targetPoint"/>
                    </mxGeometry>
                </mxCell>
                <mxCell id="708" value="" style="endArrow=none;html=1;strokeWidth=1;" edge="1" parent="1">
                    <mxGeometry width="50" height="50" relative="1" as="geometry">
                        <mxPoint x="4520" y="1320" as="sourcePoint"/>
                        <mxPoint x="4520" y="720" as="targetPoint"/>
                    </mxGeometry>
                </mxCell>
                <mxCell id="709" value="" style="endArrow=none;html=1;strokeWidth=1;" edge="1" parent="1">
                    <mxGeometry width="50" height="50" relative="1" as="geometry">
                        <mxPoint x="4440" y="1320" as="sourcePoint"/>
                        <mxPoint x="4440" y="720" as="targetPoint"/>
                    </mxGeometry>
                </mxCell>
                <mxCell id="710" value="" style="endArrow=none;html=1;strokeWidth=1;" edge="1" parent="1">
                    <mxGeometry width="50" height="50" relative="1" as="geometry">
                        <mxPoint x="4280" y="1320" as="sourcePoint"/>
                        <mxPoint x="4440" y="1320" as="targetPoint"/>
                    </mxGeometry>
                </mxCell>
                <mxCell id="711" value="" style="endArrow=none;html=1;strokeWidth=1;" edge="1" parent="1">
                    <mxGeometry width="50" height="50" relative="1" as="geometry">
                        <mxPoint x="4280" y="1320" as="sourcePoint"/>
                        <mxPoint x="4280" y="720" as="targetPoint"/>
                    </mxGeometry>
                </mxCell>
                <mxCell id="712" value="" style="endArrow=none;html=1;strokeWidth=1;" edge="1" parent="1">
                    <mxGeometry width="50" height="50" relative="1" as="geometry">
                        <mxPoint x="4520" y="1318.82" as="sourcePoint"/>
                        <mxPoint x="4840" y="1318.82" as="targetPoint"/>
                    </mxGeometry>
                </mxCell>
                <mxCell id="713" value="" style="endArrow=none;html=1;strokeWidth=2;dashed=1;" edge="1" parent="1">
                    <mxGeometry width="50" height="50" relative="1" as="geometry">
                        <mxPoint x="4250" y="740.0000000000001" as="sourcePoint"/>
                        <mxPoint x="4890" y="740.1799999999997" as="targetPoint"/>
                    </mxGeometry>
                </mxCell>
                <mxCell id="715" value="u: 5 * 2 + 2 * 3&amp;nbsp; = 16&lt;br&gt;t: 8.5" style="text;html=1;align=left;verticalAlign=middle;resizable=0;points=[];autosize=1;strokeColor=none;fillColor=none;" vertex="1" parent="1">
                    <mxGeometry x="4960" y="1330" width="120" height="30" as="geometry"/>
                </mxCell>
                <mxCell id="716" value="u: 2 * 2 + 5 * 3 + 1 * 4 = 23&lt;br&gt;t: 8.5" style="text;html=1;align=left;verticalAlign=middle;resizable=0;points=[];autosize=1;strokeColor=none;fillColor=none;" vertex="1" parent="1">
                    <mxGeometry x="5240" y="1330" width="160" height="30" as="geometry"/>
                </mxCell>
                <mxCell id="717" value="4" style="rounded=0;whiteSpace=wrap;html=1;fillColor=#fff2cc;strokeColor=#d6b656;" vertex="1" parent="1">
                    <mxGeometry x="5040" y="1260" width="80" height="60" as="geometry"/>
                </mxCell>
                <mxCell id="718" value="1" style="rounded=0;whiteSpace=wrap;html=1;fillColor=#f8cecc;strokeColor=#b85450;" vertex="1" parent="1">
                    <mxGeometry x="5200" y="1220" width="160" height="100" as="geometry"/>
                </mxCell>
                <mxCell id="721" value="4" style="rounded=0;whiteSpace=wrap;html=1;fillColor=#f8cecc;strokeColor=#b85450;" vertex="1" parent="1">
                    <mxGeometry x="5520" y="1040" width="160" height="100" as="geometry"/>
                </mxCell>
                <mxCell id="727" value="9" style="rounded=0;whiteSpace=wrap;html=1;fillColor=#ffe6cc;strokeColor=#d79b00;" vertex="1" parent="1">
                    <mxGeometry x="5680" y="960" width="120" height="80" as="geometry"/>
                </mxCell>
                <mxCell id="731" value="3" style="rounded=0;whiteSpace=wrap;html=1;fillColor=#fff2cc;strokeColor=#d6b656;" vertex="1" parent="1">
                    <mxGeometry x="5360" y="1260" width="80" height="60" as="geometry"/>
                </mxCell>
                <mxCell id="735" value="5" style="rounded=0;whiteSpace=wrap;html=1;fillColor=#f8cecc;strokeColor=#b85450;" vertex="1" parent="1">
                    <mxGeometry x="5680" y="1040" width="160" height="100" as="geometry"/>
                </mxCell>
                <mxCell id="737" value="8" style="rounded=0;whiteSpace=wrap;html=1;fillColor=#fff2cc;strokeColor=#d6b656;" vertex="1" parent="1">
                    <mxGeometry x="5600" y="980" width="80" height="60" as="geometry"/>
                </mxCell>
                <mxCell id="740" value="10" style="rounded=0;whiteSpace=wrap;html=1;fillColor=#ffe6cc;strokeColor=#d79b00;" vertex="1" parent="1">
                    <mxGeometry x="4960" y="980" width="120" height="80" as="geometry"/>
                </mxCell>
                <mxCell id="741" value="" style="endArrow=none;html=1;strokeWidth=1;" edge="1" parent="1">
                    <mxGeometry width="50" height="50" relative="1" as="geometry">
                        <mxPoint x="5440" y="1320" as="sourcePoint"/>
                        <mxPoint x="5440" y="920" as="targetPoint"/>
                    </mxGeometry>
                </mxCell>
                <mxCell id="746" value="" style="endArrow=none;html=1;strokeWidth=1;" edge="1" parent="1">
                    <mxGeometry width="50" height="50" relative="1" as="geometry">
                        <mxPoint x="5200" y="1318.8199999999997" as="sourcePoint"/>
                        <mxPoint x="5440" y="1319" as="targetPoint"/>
                    </mxGeometry>
                </mxCell>
                <mxCell id="747" value="" style="endArrow=none;html=1;strokeWidth=2;dashed=1;" edge="1" parent="1">
                    <mxGeometry width="50" height="50" relative="1" as="geometry">
                        <mxPoint x="4920" y="978.8199999999997" as="sourcePoint"/>
                        <mxPoint x="5887" y="979" as="targetPoint"/>
                    </mxGeometry>
                </mxCell>
                <mxCell id="748" value="1" style="rounded=0;whiteSpace=wrap;html=1;fillColor=#fff2cc;strokeColor=#d6b656;" vertex="1" parent="1">
                    <mxGeometry x="5520" y="1260" width="80" height="60" as="geometry"/>
                </mxCell>
                <mxCell id="749" value="2" style="rounded=0;whiteSpace=wrap;html=1;fillColor=#f8cecc;strokeColor=#b85450;" vertex="1" parent="1">
                    <mxGeometry x="5520" y="1140" width="160" height="100" as="geometry"/>
                </mxCell>
                <mxCell id="750" value="3" style="rounded=0;whiteSpace=wrap;html=1;fillColor=#ffe6cc;strokeColor=#d79b00;" vertex="1" parent="1">
                    <mxGeometry x="5200" y="1140" width="120" height="80" as="geometry"/>
                </mxCell>
                <mxCell id="751" value="5" style="rounded=0;whiteSpace=wrap;html=1;fillColor=#ffe6cc;strokeColor=#d79b00;" vertex="1" parent="1">
                    <mxGeometry x="5200" y="1060" width="120" height="80" as="geometry"/>
                </mxCell>
                <mxCell id="752" value="6" style="rounded=0;whiteSpace=wrap;html=1;fillColor=#fff2cc;strokeColor=#d6b656;" vertex="1" parent="1">
                    <mxGeometry x="5040" y="1200" width="80" height="60" as="geometry"/>
                </mxCell>
                <mxCell id="753" value="7" style="rounded=0;whiteSpace=wrap;html=1;fillColor=#fff2cc;strokeColor=#d6b656;" vertex="1" parent="1">
                    <mxGeometry x="5520" y="980" width="80" height="60" as="geometry"/>
                </mxCell>
                <mxCell id="754" value="7" style="rounded=0;whiteSpace=wrap;html=1;fillColor=#ffe6cc;strokeColor=#d79b00;" vertex="1" parent="1">
                    <mxGeometry x="4960" y="1120" width="120" height="80" as="geometry"/>
                </mxCell>
                <mxCell id="755" value="9" style="rounded=0;whiteSpace=wrap;html=1;fillColor=#fff2cc;strokeColor=#d6b656;" vertex="1" parent="1">
                    <mxGeometry x="4960" y="1060" width="80" height="60" as="geometry"/>
                </mxCell>
                <mxCell id="756" value="1" style="rounded=0;whiteSpace=wrap;html=1;fillColor=#ffe6cc;strokeColor=#d79b00;" vertex="1" parent="1">
                    <mxGeometry x="5600" y="1240" width="120" height="80" as="geometry"/>
                </mxCell>
                <mxCell id="757" value="2" style="rounded=0;whiteSpace=wrap;html=1;fillColor=#fff2cc;strokeColor=#d6b656;" vertex="1" parent="1">
                    <mxGeometry x="4960" y="1260" width="80" height="60" as="geometry"/>
                </mxCell>
                <mxCell id="758" value="2" style="rounded=0;whiteSpace=wrap;html=1;fillColor=#ffe6cc;strokeColor=#d79b00;" vertex="1" parent="1">
                    <mxGeometry x="5720" y="1240" width="120" height="80" as="geometry"/>
                </mxCell>
                <mxCell id="759" value="3" style="rounded=0;whiteSpace=wrap;html=1;fillColor=#f8cecc;strokeColor=#b85450;" vertex="1" parent="1">
                    <mxGeometry x="5680" y="1140" width="160" height="100" as="geometry"/>
                </mxCell>
                <mxCell id="760" value="4" style="rounded=0;whiteSpace=wrap;html=1;fillColor=#ffe6cc;strokeColor=#d79b00;" vertex="1" parent="1">
                    <mxGeometry x="5320" y="1140" width="120" height="80" as="geometry"/>
                </mxCell>
                <mxCell id="761" value="5" style="rounded=0;whiteSpace=wrap;html=1;fillColor=#fff2cc;strokeColor=#d6b656;" vertex="1" parent="1">
                    <mxGeometry x="4960" y="1200" width="80" height="60" as="geometry"/>
                </mxCell>
                <mxCell id="762" value="6" style="rounded=0;whiteSpace=wrap;html=1;fillColor=#ffe6cc;strokeColor=#d79b00;" vertex="1" parent="1">
                    <mxGeometry x="5320" y="1060" width="120" height="80" as="geometry"/>
                </mxCell>
                <mxCell id="763" value="8" style="rounded=0;whiteSpace=wrap;html=1;fillColor=#ffe6cc;strokeColor=#d79b00;" vertex="1" parent="1">
                    <mxGeometry x="5200" y="980" width="120" height="80" as="geometry"/>
                </mxCell>
                <mxCell id="764" value="10" style="rounded=0;whiteSpace=wrap;html=1;fillColor=#fff2cc;strokeColor=#d6b656;" vertex="1" parent="1">
                    <mxGeometry x="5320" y="1000" width="80" height="60" as="geometry"/>
                </mxCell>
                <mxCell id="765" value="" style="endArrow=none;html=1;strokeWidth=1;" edge="1" parent="1">
                    <mxGeometry width="50" height="50" relative="1" as="geometry">
                        <mxPoint x="5840" y="1320" as="sourcePoint"/>
                        <mxPoint x="5840" y="920" as="targetPoint"/>
                    </mxGeometry>
                </mxCell>
                <mxCell id="766" value="" style="endArrow=none;html=1;strokeWidth=1;" edge="1" parent="1">
                    <mxGeometry width="50" height="50" relative="1" as="geometry">
                        <mxPoint x="5520" y="1320" as="sourcePoint"/>
                        <mxPoint x="5520" y="920" as="targetPoint"/>
                    </mxGeometry>
                </mxCell>
                <mxCell id="767" value="" style="endArrow=none;html=1;strokeWidth=1;" edge="1" parent="1">
                    <mxGeometry width="50" height="50" relative="1" as="geometry">
                        <mxPoint x="5520" y="1318.8199999999997" as="sourcePoint"/>
                        <mxPoint x="5840" y="1318.8199999999997" as="targetPoint"/>
                    </mxGeometry>
                </mxCell>
                <mxCell id="768" value="u: 3 * 2 + 3 * 3 + 4 * 4 = 31&lt;br&gt;t: 9" style="text;html=1;align=left;verticalAlign=middle;resizable=0;points=[];autosize=1;strokeColor=none;fillColor=none;" vertex="1" parent="1">
                    <mxGeometry x="5600" y="1330" width="160" height="30" as="geometry"/>
                </mxCell>
                <mxCell id="769" value="2种worker，3种subtask，交替分配" style="text;html=1;align=center;verticalAlign=middle;resizable=0;points=[];autosize=1;strokeColor=none;fillColor=none;" vertex="1" parent="1">
                    <mxGeometry x="4403" y="1381" width="197" height="18" as="geometry"/>
                </mxCell>
                <mxCell id="770" value="3种worker，3种subtask，交替分配" style="text;html=1;align=center;verticalAlign=middle;resizable=0;points=[];autosize=1;strokeColor=none;fillColor=none;" vertex="1" parent="1">
                    <mxGeometry x="5207" y="1376" width="197" height="18" as="geometry"/>
                </mxCell>
                <mxCell id="743" value="" style="endArrow=none;html=1;strokeWidth=1;" edge="1" parent="1">
                    <mxGeometry width="50" height="50" relative="1" as="geometry">
                        <mxPoint x="5120" y="1320" as="sourcePoint"/>
                        <mxPoint x="5120" y="920" as="targetPoint"/>
                    </mxGeometry>
                </mxCell>
                <mxCell id="744" value="" style="endArrow=none;html=1;strokeWidth=1;" edge="1" parent="1">
                    <mxGeometry width="50" height="50" relative="1" as="geometry">
                        <mxPoint x="4960" y="1320" as="sourcePoint"/>
                        <mxPoint x="5120" y="1320" as="targetPoint"/>
                    </mxGeometry>
                </mxCell>
                <mxCell id="745" value="" style="endArrow=none;html=1;strokeWidth=1;" edge="1" parent="1">
                    <mxGeometry width="50" height="50" relative="1" as="geometry">
                        <mxPoint x="4960" y="1320" as="sourcePoint"/>
                        <mxPoint x="4960" y="920" as="targetPoint"/>
                    </mxGeometry>
                </mxCell>
                <mxCell id="742" value="" style="endArrow=none;html=1;strokeWidth=1;" edge="1" parent="1">
                    <mxGeometry width="50" height="50" relative="1" as="geometry">
                        <mxPoint x="5200" y="1320" as="sourcePoint"/>
                        <mxPoint x="5200" y="920" as="targetPoint"/>
                    </mxGeometry>
                </mxCell>
                <mxCell id="771" value="2种worker，3种subtask，依次分配" style="text;html=1;align=center;verticalAlign=middle;resizable=0;points=[];autosize=1;strokeColor=none;fillColor=none;" vertex="1" parent="1">
                    <mxGeometry x="3732" y="1381" width="197" height="18" as="geometry"/>
                </mxCell>
                <mxCell id="775" value="2个worker，3种subtask，依次分配" style="text;html=1;align=center;verticalAlign=middle;resizable=0;points=[];autosize=1;strokeColor=none;fillColor=none;" vertex="1" parent="1">
                    <mxGeometry x="2239" y="1386" width="200" height="20" as="geometry"/>
                </mxCell>
                <mxCell id="776" value="2个worker，3种subtask，交替分配" style="text;html=1;align=center;verticalAlign=middle;resizable=0;points=[];autosize=1;strokeColor=none;fillColor=none;" vertex="1" parent="1">
                    <mxGeometry x="3044" y="1381" width="200" height="20" as="geometry"/>
                </mxCell>
            </root>
        </mxGraphModel>
    </diagram>
</mxfile>